<svg width="130" height="100" viewBox="0 0 130 100" fill="none" xmlns="http://www.w3.org/2000/svg">
<path fill-rule="evenodd" clip-rule="evenodd" d="M72.0179 57.8456C72.6631 53.8623 73.7852 50.8608 74.9353 47.7752C75.1036 47.3264 75.2158 46.8776 75.4963 46.7653C75.5804 48.0838 74.2901 56.0223 74.0096 56.6955C73.9815 59.0238 71.6533 66.0646 74.3462 68.9259C75.6085 70.2723 77.8807 69.3747 79.171 67.8038C79.3954 67.5233 79.5637 67.2989 79.7881 67.0184C80.0967 66.6537 80.1809 66.3171 80.5736 66.3171C80.6297 69.8516 83.2385 70.5248 83.7995 69.1503C84.3886 67.6636 85.0057 63.7364 85.4826 61.6045C85.6789 60.7349 86.4363 57.0882 86.6607 56.7236C87.3059 57.7334 87.2217 60.3702 88.8487 61.6886C89.4659 62.1936 89.6061 61.9692 90.2232 62.1936C90.3915 63.7644 89.8586 64.9706 90.5037 67.0464C91.8502 71.3944 95.4688 69.2064 96.7031 67.355C97.8812 65.5597 96.8433 70.104 100.546 69.7394C101.332 69.6552 102.061 69.1503 102.678 68.421C103.155 67.8599 104.249 66.2049 104.445 66.4013C104.978 67.6075 104.67 68.5051 105.764 69.3747C108.905 71.8713 111.739 66.4854 112.131 66.9062C112.3 67.1867 112.244 67.1026 112.356 67.6916C113.169 71.6188 115.217 70.0199 115.469 69.3186C116.171 67.2709 116.76 64.2133 117.321 61.8569C117.742 60.0617 120.042 51.3377 120.855 49.4302C121.024 49.0656 121.36 48.1679 121.472 47.8032C121.192 47.4105 121.444 47.8032 121.36 47.5508C121.36 47.5227 121.304 47.4666 121.304 47.3825C121.304 47.3264 121.276 47.3264 121.276 47.2983C120.967 47.8593 121.332 47.5788 120.827 47.9435L120.519 45.6713C120.378 44.6895 120.238 44.2688 120.238 43.1748L120.07 43.2309C120.098 43.2589 120.21 43.2589 120.294 44.6895C120.322 45.6994 120.715 47.1861 120.771 48.1118C120.659 48.4204 120.743 48.1399 120.631 48.3362L120.491 48.5606C120.435 48.6728 120.35 48.9253 120.266 49.0936C119.004 52.2353 117.265 58.9396 116.507 62.8107L115.778 67.0464C115.554 68.1685 115.666 68.0002 115.385 68.3649C115.357 65.9524 117.124 55.2368 117.573 52.2354C117.685 51.3938 117.854 50.5523 117.994 49.7107L118.303 47.7752C118.359 47.4105 118.359 47.5788 118.443 47.0739C118.415 46.1482 118.527 46.4848 118.667 45.6994L118.751 45.0542C118.892 44.1846 118.892 44.6615 118.836 44.1846L118.808 43.5955C118.779 43.0906 118.808 43.5114 118.751 43.1187L118.667 42.8101C118.443 43.2309 118.639 42.754 118.443 43.5675C118.106 44.8579 118.022 45.9519 117.714 47.2142L117.405 48.4484C117.517 47.4386 117.854 45.8677 118.022 44.7737C118.134 44.0724 118.19 43.7639 118.387 43.1187C118.527 42.6418 118.555 42.754 118.639 42.3613C118.695 42.1088 118.723 41.9125 118.808 41.5759C118.836 41.66 118.892 41.632 118.836 42.1088C118.836 42.1088 118.723 42.6137 118.723 42.6418C118.892 42.5296 118.836 42.5015 118.92 42.8382L119.144 42.193L119.06 40.9307C119.004 39.5001 118.976 40.2013 118.92 39.8367C118.92 39.7245 118.892 39.7245 118.864 39.6684C118.808 40.033 118.836 40.005 118.808 40.3135L118.695 40.8746C118.415 41.7722 118.583 41.5197 118.387 42.1088C118.134 42.9223 117.349 47.3264 117.209 47.8313C117.096 47.3264 117.461 45.6152 117.601 44.8298C117.601 44.8018 117.629 44.7456 117.629 44.7176C117.854 43.3711 117.545 44.6054 117.714 43.4272L118.836 37.6206C119.004 36.9754 119.032 37.3401 119.172 36.3303L119.34 36.9193C119.369 37.0876 119.453 37.284 119.537 37.5084C119.537 37.5365 119.593 37.6206 119.593 37.6487L119.621 37.7048C119.621 37.7328 119.649 37.8731 119.677 37.9011C119.733 38.1255 119.677 37.9572 119.761 38.1816L119.873 38.378C119.761 37.4523 119.789 37.5084 119.593 36.723C119.453 36.0778 119.369 35.9936 119.453 35.2082L119.481 34.1984C119.2 34.4228 119.369 34.3106 119.256 34.5069L117.181 43.0345C117.181 43.0626 117.152 43.1187 117.152 43.1467L117.293 41.8003C117.994 38.378 117.91 38.9951 118.808 35.657L119.481 33.3568C119.537 32.9641 119.509 33.2446 119.509 32.7397C119.088 32.9922 119.088 33.2727 118.751 34.3667L118.19 36.2181C118.134 36.3864 118.106 36.4986 118.05 36.723L117.91 37.2559C117.826 37.5365 117.742 37.845 117.657 38.1816L117.349 39.444C117.349 39.472 117.321 39.5281 117.321 39.5562L119.06 33.2166C119.621 31.3652 119.537 32.6275 119.593 31.5615C119.677 30.1029 119.649 31.3091 119.509 30.8041C119.284 31.0286 119.284 31.1969 119.088 31.842L117.545 36.8913C117.461 37.1437 117.489 37.1157 117.405 37.4243C117.209 38.0975 117.265 37.9011 117.04 37.845H116.984C116.844 38.2377 116.928 37.9853 116.76 38.35C116.563 38.7427 116.704 38.5744 116.479 38.8549C116.563 38.4061 116.591 38.2377 116.676 37.817C116.535 37.9292 116.676 37.9853 116.563 37.817C116.76 37.3401 116.9 36.8913 117.096 36.4144C117.293 35.9095 117.517 35.4046 117.461 34.8996L117.321 34.8716H117.293C117.096 34.8996 117.433 35.124 117.152 34.8996L117.237 34.7033C118.022 32.4592 118.639 31.3932 119.172 29.8223C119.453 29.0089 119.621 28.7845 119.621 27.4099C119.369 27.6063 119.453 27.5502 119.256 27.999C119.256 28.0271 119.228 28.0551 119.228 28.0832L119.144 28.3637C118.331 31.3932 118.05 31.253 117.349 33.2166L117.152 33.9178C117.096 33.2727 117.657 32.2628 117.854 31.6737L118.19 30.6639C118.583 29.7382 118.667 30.3273 118.723 29.3455C118.359 29.4857 118.246 29.626 118.022 30.1029C117.798 30.5797 117.742 30.8603 117.545 31.3371C117.377 31.7579 117.237 32.0384 117.068 32.5714C116.956 32.908 116.732 33.7215 116.676 34.0581V33.7495C116.451 34.2264 116.115 37.0035 116.002 37.7048C115.834 39.0232 115.61 40.3416 115.441 41.66L112.524 61.4642C112.328 62.6704 112.328 64.6901 111.991 65.4756C111.598 66.3452 109.551 68.5893 108.457 68.1404C107.699 67.8319 107.868 65.9244 108.008 64.3816L109.943 50.2437C110.308 48.785 111.009 50.8328 111.711 49.2619C111.935 48.785 112.103 48.3362 112.019 47.4386C111.458 47.102 110.897 47.5788 110.336 47.6349C110.42 46.1202 110.701 44.7457 110.869 43.3992L112.047 35.0679C112.187 33.8056 112.468 31.8981 112.524 30.8041C112.159 30.1029 112.861 30.8883 112.356 30.9164C112.187 30.9164 112.384 29.4296 112.159 32.6555C112.019 34.9557 111.823 34.1142 111.626 34.6472C111.514 34.9277 111.514 36.0497 111.402 36.5547L111.318 36.8352C111.318 36.8071 111.29 36.9193 111.262 36.9754L111.178 36.19C111.178 35.9656 111.206 35.8814 111.206 35.657C111.234 35.2082 111.262 34.8716 111.262 34.535C111.121 34.8716 110.841 34.8716 110.588 35.0118C110.645 33.5251 110.813 33.6934 110.476 33.2166C110.476 35.0679 110.42 34.8435 109.663 35.1802C109.747 34.3947 109.831 34.1703 109.803 33.3568L109.607 35.4887C108.597 35.5168 108.513 36.19 108.429 37.4523C108.092 36.8352 108.4 37.6206 108.26 36.9754C108.148 36.3022 108.485 35.3485 108.597 34.9557C108.569 34.5911 108.597 34.9557 108.457 34.7594C108.372 36.0497 108.064 36.0217 107.896 37.6206C107.671 39.6403 106.914 45.6152 106.549 47.3264C105.708 47.5227 105.062 47.1581 105.09 49.7388C105.455 49.851 105.876 49.5144 106.212 49.3741C106.184 51.3658 104.922 58.7433 104.614 61.1837C104.473 62.3058 104.389 63.2315 104.277 64.3535C104.137 65.6158 103.8 65.728 103.379 66.2891C102.566 67.4392 101.752 68.2526 100.602 67.7477C100.097 64.6901 101.332 59.3043 101.668 56.3308C101.949 53.9184 103.267 47.3544 103.267 45.6152C102.706 45.5591 100.546 46.6812 99.8729 47.0459C99.1155 47.4666 99.2277 48.0277 99.0033 49.5424C98.5825 52.3195 97.208 61.2118 97.0397 63.3437C96.8433 65.9805 97.1519 65.167 96.3665 66.4013C95.9738 67.0184 95.6091 67.5514 95.02 67.8319C94.4029 68.1404 93.5613 68.3368 93.4772 66.822C93.393 65.0829 94.0382 61.0154 94.2907 59.3884L95.8055 49.2339C95.9738 47.9996 96.2262 46.9617 96.2823 45.5591C95.7774 45.6152 94.487 46.2043 93.9821 46.5129C91.4014 48.1118 92.9442 45.1384 90.8684 57.4248C90.7282 58.2664 90.6721 58.8274 90.5599 59.6689C90.4196 60.6507 90.3074 60.7629 89.8025 60.9032C88.7085 61.2118 88.2596 60.6788 87.8389 59.1921C87.5584 58.0981 87.2217 55.882 87.5584 54.5356C87.7267 53.8062 87.9791 53.5257 88.2035 53.0208L90.1391 48.3362C91.1209 45.3908 89.3536 44.2688 88.3157 45.7835C87.6425 46.7653 86.9132 49.2619 86.6888 51.1694C86.4644 53.0769 86.4924 54.0867 86.0997 55.7698C84.8374 61.1276 85.0057 61.6325 84.108 66.233L83.7995 67.8319C83.6312 68.421 83.7714 68.0563 83.5751 68.2807C83.5751 66.4293 84.7813 58.5749 85.0618 56.7797C85.3984 54.6478 86.6327 47.2142 86.7168 45.5311C86.2399 45.4469 85.0618 46.1202 84.5569 46.4287C82.0603 47.8874 83.0421 45.503 81.4432 56.3869C81.2468 57.7615 81.0505 59.2482 80.8541 60.6227C80.237 64.9706 80.6858 65.0268 78.638 66.9903C77.8526 67.7477 77.4038 67.9721 76.5061 67.4392C76.1976 64.8304 76.6744 62.5302 77.0391 60.23C77.4038 57.9578 77.7123 55.6857 78.1051 53.4696C78.4417 51.506 79.0027 48.3643 78.3575 46.3726C77.7684 44.6054 76.1695 44.8018 75.1877 45.8958C72.9436 48.3362 71.1203 57.4248 70.3068 62.3899L69.4372 67.327C69.325 67.9721 69.2409 68.449 68.9603 68.5051C68.792 67.4953 69.6616 63.0632 69.886 61.7447C70.1946 59.6128 70.5873 57.1163 70.952 55.0124C71.3447 52.8244 71.8496 50.384 71.5972 47.7752C71.2325 43.848 68.5115 44.914 67.4736 47.2422C66.2113 50.1035 65.7064 51.7304 64.8368 55.2929C64.1075 58.2383 63.5184 61.6045 62.9293 64.8023C62.7049 65.9805 62.6488 66.0927 62.5085 67.2989C62.4244 68.0002 62.4244 67.916 62.228 68.1965C62.228 65.5878 64.0514 54.9002 64.5843 51.1974C64.8368 49.3741 65.2576 47.1861 65.4259 45.3628C64.2758 45.7274 63.0976 46.4568 61.9475 47.0739C61.3023 47.4386 61.2743 48.2801 61.106 49.7949C60.9657 50.945 60.7694 52.067 60.6011 53.2171C60.1803 55.9942 59.4229 60.8752 59.1704 63.7364C59.0302 65.4756 58.8058 65.6719 58.2167 66.3452C57.6557 66.9903 55.664 69.0942 55.2433 66.9062C54.7103 63.9888 58.1325 47.8593 57.852 45.5311C57.6557 45.5311 56.0848 46.2885 55.7482 46.4848C54.7383 47.0178 54.542 47.4666 53.7565 46.1763C52.4662 44.0724 49.8293 45.7555 48.6792 47.8874C47.9219 49.29 47.4169 50.7206 46.8279 52.6281C45.5655 56.6955 45.8741 57.6493 45.2289 60.791C43.8825 61.2118 43.1251 61.0435 42.6763 58.4908C42.3957 56.8358 42.2835 55.0405 42.9007 53.7782L45.1448 48.3082C46.0424 45.8116 44.5837 44.0444 43.4056 45.6152C42.8446 46.3726 42.0872 48.9533 41.8347 50.4681C41.442 52.9647 41.6103 54.1428 40.881 56.6955C40.4883 58.0981 40.0675 60.7629 39.7309 62.446C39.4784 63.7083 38.9454 67.8599 38.6649 68.449C38.3564 67.4953 39.1418 63.512 39.2821 62.5863C39.5345 60.6507 39.8431 58.8835 40.1236 56.948C40.4041 55.0966 40.6846 53.133 40.909 51.2255C41.0773 49.879 41.7786 46.569 41.6664 45.5311C40.9932 45.5872 39.5626 46.597 38.7771 46.8775C37.3746 47.4105 37.599 48.8411 37.2063 51.4219L35.5232 63.54C35.3549 65.1951 35.3829 65.1109 34.8219 65.9244C33.6157 67.6355 30.6142 70.4406 29.5202 67.1586C29.2397 66.3171 29.2116 65.1951 29.2116 64.045C29.1836 62.5302 29.1836 61.8008 29.7166 61.352C30.6703 60.5946 31.7082 58.9677 32.5497 57.6212C33.223 56.5272 34.1767 53.4135 34.3731 51.7024C34.5133 50.5242 34.4853 49.2619 34.3731 48.0277C34.0365 44.6054 31.6801 44.7456 30.502 45.6152C28.6506 46.9617 27.6408 49.4302 26.7712 53.2171C24.9759 61.1276 25.6491 65.5597 25.4528 66.3171C24.6393 68.0282 23.4611 68.1965 22.3671 66.822C22.0305 66.4013 22.0024 66.4013 21.778 65.8402C21.5817 65.3634 21.4134 65.1109 21.217 64.606C19.5339 60.23 18.2155 55.4051 15.5506 53.6099C15.5226 52.6561 15.7189 52.0951 15.8312 51.3377C15.9714 50.412 16.0556 50.2437 16.5324 49.9351C17.8789 49.0094 19.1132 47.8313 20.1511 45.8397C20.3474 45.4469 20.3474 45.475 20.5157 45.1945C21.1609 44.1005 21.6939 42.7821 22.1988 41.3795C23.2648 38.4341 24.1624 35.8534 25.0039 32.4031C25.2564 31.3091 25.8174 29.4296 25.9577 28.3356C25.3125 28.4198 22.283 29.2613 21.9183 29.8504C21.6939 30.2151 20.4596 35.4046 20.1791 36.4705C19.6461 38.6024 19.0571 40.9587 18.4399 42.9223L17.402 45.8677C17.0935 46.6531 16.6727 47.9715 16.2519 48.3362L17.3179 38.8549C17.5984 36.3022 18.5241 31.4774 18.6643 29.5138C17.2057 29.4577 18.5241 30.187 16.2239 29.2333C13.8115 28.2234 11.4271 26.1196 8.90248 27.1575C7.52797 27.7185 6.20955 29.5418 5.25581 31.3652C5.1436 31.5896 5.0314 31.842 4.91919 32.0665C4.18986 33.3007 3.03975 36.8352 2.92755 38.7427C3.71299 38.6866 3.68493 36.9474 4.02155 35.7692C4.30206 34.7594 4.72283 33.7776 5.25581 33.2727C6.77058 31.814 10.6417 35.5729 13.6151 34.0861C14.6249 33.5812 16.3641 31.6737 17.3459 31.6176C17.2057 32.2909 17.0935 32.2348 16.8129 32.6836C16.6166 32.9921 16.4483 33.3288 16.28 33.6373C14.7933 36.3864 14.3725 36.6388 13.4468 40.5941C12.3528 45.1945 12.4369 47.1581 11.932 50.4681C11.6796 52.0951 11.371 51.6182 10.6136 51.9829C10.6136 53.4135 11.0344 52.9086 11.4271 53.694C11.5113 55.6857 10.6136 60.5666 10.2489 62.0533C9.65986 64.4377 8.90248 66.5696 7.69627 67.6636C6.34981 68.8978 4.75089 69.0381 3.32027 68.0843C2.64704 67.6355 2.11406 67.1025 1.58109 66.3732C0.795649 65.3353 0.571239 64.0449 0.0102128 64.2413C-0.101992 65.7 0.739547 67.1586 1.10421 67.7477C1.8055 68.8137 2.00186 69.2064 2.98365 69.7955C4.38622 70.609 6.65837 70.3565 7.92068 69.1503C9.09884 68.0282 10.7258 66.233 11.4832 64.7743L12.998 61.885C13.3626 61.2118 14.0078 58.9957 14.3444 58.6591C14.6249 59.136 14.9896 61.0435 15.186 61.8569C15.4384 62.979 15.747 64.073 16.0275 65.0267C16.6727 67.1025 17.2898 68.8137 18.468 69.9357C22.1708 73.358 25.3405 67.2709 25.7333 67.4111C25.9016 67.4672 26.3504 68.5332 26.5748 68.8698C27.6969 70.3565 29.408 70.2723 30.6703 70.0199C31.596 69.8235 32.3814 69.3466 33.1949 68.7576C33.9523 68.2246 35.1024 66.5135 35.2707 66.4574C35.972 68.2807 35.6634 69.2064 37.1782 69.7674C38.7491 70.3565 38.8893 68.3929 39.226 66.822C39.5626 65.1951 41.1334 57.3687 41.5823 56.8077C41.8628 57.2004 41.9469 58.2103 42.1433 58.8555C43.2092 62.6143 44.8643 61.7447 45.0606 62.2216C45.5094 63.2595 44.3874 68.3929 47.2767 69.6833C48.4548 70.2162 49.7452 69.6272 50.755 68.421C50.9795 68.1404 51.5124 67.4111 51.7088 67.2989C52.1576 67.9441 52.5223 69.1503 53.1394 69.4869C54.9066 70.4968 56.5897 69.1503 58.1606 67.4672C58.3008 67.2989 58.4131 67.1586 58.5253 66.9623C58.6936 66.6257 58.6655 66.5415 58.8899 66.3171C59.451 67.8038 59.3107 70.0199 61.2743 69.7955C61.7512 69.7394 62.0317 69.5991 62.2841 69.01C62.7049 68.0282 63.4062 63.4278 63.9953 61.0435C65.3698 55.5735 65.8186 53.3855 67.5297 48.3082C67.7822 47.5788 67.7822 46.9898 68.2591 46.8495C68.3152 48.6167 67.8102 50.4681 67.5578 52.0109C67.3053 53.7221 67.0529 55.349 66.8004 57.0321C66.4077 59.6409 65.3417 64.7743 66.043 67.5233C66.3516 68.7015 66.9967 69.7955 68.0066 69.8235C68.4274 69.8235 68.8762 69.5711 69.1567 69.0661C69.4092 68.5893 69.5494 67.5794 69.6897 66.822C69.9982 65.167 70.3349 63.8486 70.6715 62.2777C71.2886 60.9313 71.6813 59.0518 72.0179 57.8456ZM29.6043 60.3141C29.969 57.1724 31.0069 50.7767 31.7643 47.9154C32.2131 46.2043 32.9425 45.4469 33.3071 46.3165C33.6718 47.13 33.1669 49.8229 32.9986 50.6645C32.69 52.2073 31.9607 54.6478 31.5118 55.9942C31.0069 57.4809 30.6422 59.4445 29.6043 60.3141ZM54.009 49.5424C53.448 53.6099 51.9332 61.2959 51.8771 65.1951C51.849 66.6537 51.5685 66.6537 51.0356 67.327C50.6709 67.8038 50.0818 68.0843 49.6049 67.6916C48.1463 66.4854 50.1379 50.6084 52.1296 47.0739C52.7747 45.8958 54.4017 46.6812 54.009 49.5424Z" fill="#1A5436"/>
<path fill-rule="evenodd" clip-rule="evenodd" d="M106.605 19.7239C106.914 19.808 106.802 19.6117 106.914 20.2007C107.194 19.9202 106.97 20.1166 107.026 20.3971C106.886 20.902 106.717 22.6132 106.605 23.3986C106.465 24.3523 106.184 25.1378 106.072 26.1196C105.904 27.5782 105.427 30.2712 105.315 31.3652C105.147 33.0202 105.595 31.8981 105.708 31.7298C105.904 31.4493 105.792 31.1127 105.932 29.9065L106.577 25.0536C106.689 24.4365 106.717 24.1279 106.774 23.3705L107.25 19.219C107.419 18.6579 107.335 18.8262 107.699 18.714C107.671 19.6397 107.531 20.1727 107.419 20.9862L106.802 25.0817C106.633 25.7549 106.689 25.0536 106.577 25.9513C106.437 27.0733 106.465 28.9528 106.185 31.3371C106.044 32.6275 105.932 34.563 105.708 35.7692C105.876 34.6472 105.96 34.2264 105.708 33.7215L105.006 40.9868C105.932 37.5084 106.325 31.5335 106.633 30.4675L105.736 40.5099C106.044 40.0611 106.044 39.6123 106.213 38.2938C106.297 37.5365 106.381 36.6949 106.493 36.0497L106.381 39.5281C106.493 39.3037 106.605 39.1073 106.661 38.6024C106.717 38.1816 106.689 37.7609 106.746 37.3401C106.774 36.8632 106.998 35.629 107.082 35.2924C107.363 34.1703 107.279 34.6752 107.419 33.2166C107.447 33.0483 107.503 32.6275 107.559 32.2628C107.783 30.6639 108.793 22.9498 108.793 22.4449C108.793 23.7913 108.513 25.1658 108.373 26.3159C108.204 27.6343 108.064 28.8406 107.896 30.159C107.727 31.3932 107.559 32.7397 107.391 33.9739C107.279 34.9557 106.914 35.9375 106.83 37.9572C106.858 37.9292 106.886 37.817 106.886 37.845C106.97 38.0694 107.419 35.2924 107.447 35.1241C107.643 34.1423 107.755 33.1044 107.896 32.0665L109.887 16.6102C110.14 14.7868 109.887 14.8429 110.617 14.0856C110.056 16.3016 110.42 14.7868 110.112 16.7504C109.943 17.7603 109.831 18.6579 109.663 19.6958C109.354 21.5472 109.074 23.7913 108.849 25.6988C108.681 26.9611 107.84 33.8617 107.755 35.0399L107.559 37.9853C107.587 38.2938 107.587 38.2097 107.615 38.378C107.896 36.3022 108.26 34.2545 108.569 32.0945C109.242 27.6063 110.056 20.5374 110.701 15.6003C110.813 14.8149 110.785 14.1417 110.953 13.5806C110.953 13.5526 110.981 13.5245 110.981 13.4965C111.178 12.9916 111.206 13.0477 111.402 12.9074C111.29 13.5245 111.262 13.4404 111.15 14.0575C111.093 14.5063 111.037 14.9832 110.953 15.432C110.056 21.2948 109.074 28.9808 108.457 34.7874C108.597 34.9838 108.541 34.6191 108.597 34.9838C108.485 35.3765 108.12 36.3303 108.26 37.0035C108.373 37.6487 108.092 36.8632 108.429 37.4804C108.513 36.2181 108.597 35.5729 109.607 35.5168L109.803 33.3849L110.28 30.748C110.785 27.5502 111.907 17.0871 112.272 13.3282C112.412 11.7854 112.272 11.589 112.917 11.0841C112.749 12.8233 112.412 14.5624 112.187 16.3016C111.711 20.0885 110.673 29.8785 110.448 33.2166C110.785 33.6934 110.617 33.5251 110.561 35.0118C110.813 34.8716 111.065 34.8716 111.234 34.535C111.262 34.8996 111.234 35.2363 111.178 35.657C111.15 35.8814 111.15 35.9656 111.15 36.19L111.234 36.9754C111.262 36.9193 111.262 36.8071 111.29 36.8352L111.374 36.5547C111.486 36.0778 111.486 34.9557 111.598 34.6472C111.823 34.1142 111.991 34.9557 112.131 32.6555C112.356 29.4296 112.159 30.9164 112.328 30.9164C112.833 30.8883 112.131 30.1309 112.496 30.8041L112.552 30.5797C112.608 30.3834 112.58 30.4675 112.636 30.2151L114.796 11.3646C114.908 10.0181 114.824 9.37294 115.301 8.98022C115.217 9.5132 115.133 9.84981 115.049 10.3547C114.628 12.9916 114.011 18.8262 113.674 21.6875C113.169 25.8952 112.777 31.1969 112.524 35.7412C112.973 34.7874 113.702 26.372 114.123 25.1658C114.095 26.0635 113.843 28.1673 113.955 28.7845C114.235 27.5782 114.516 25.0536 114.712 23.5389C114.937 21.7997 115.161 19.9483 115.385 18.2372C115.638 16.5541 115.89 14.7307 116.087 12.9355C116.199 11.9817 116.339 11.1963 116.423 10.2706C116.535 9.20463 116.507 8.16674 116.9 7.80207L114.375 28.3356C114.319 28.8686 114.319 29.3735 114.263 29.8504C114.207 30.5236 114.123 30.9444 114.235 31.4213L115.946 20.4813C116.199 18.7701 117.153 9.14853 117.349 8.83997C117.433 9.12048 117.433 8.5875 117.377 9.34489L116.816 14.1417C116.62 16.0492 116.423 18.0127 116.227 19.8922C115.862 23.3705 115.357 28.4198 115.385 31.9262C115.862 31.1688 115.722 29.093 116.143 28.3637L116.676 27.6063L116.648 28.2234L116.816 27.4941C116.816 27.466 116.844 27.4099 116.844 27.4099C116.844 27.3819 116.872 27.3538 116.872 27.3258L116.9 27.466C117.012 27.2697 117.068 27.0453 117.153 26.8209C116.984 26.8209 117.04 26.905 117.153 26.4842C116.956 26.2879 117.04 26.5403 117.237 25.1378C117.349 24.3523 117.293 24.2121 117.545 23.7352L117.601 25.6427C118.106 25.7549 118.134 25.6988 118.134 23.7913L118.499 23.3144C118.359 23.9316 118.331 23.5669 118.275 24.6048C119.116 24.3523 119.116 23.6791 119.144 22.3607L119.2 21.6875C118.948 21.4631 119.116 21.7716 118.976 21.3509C119.032 20.5374 119.06 21.0142 118.864 20.5374C118.667 21.2667 118.499 20.7337 118.303 21.407C118.134 22.0521 118.303 22.3607 118.05 22.9778L117.91 21.3509C117.742 21.5472 117.826 21.3509 117.742 21.8277C117.657 22.3046 117.742 22.8376 117.77 23.1461L117.433 23.4828C117.293 23.595 117.377 23.4266 117.181 23.7913C117.237 22.9778 117.714 21.996 117.545 21.1825C117.517 21.2106 117.517 21.2667 117.489 21.2948C117.489 21.3228 117.461 21.3789 117.433 21.407C117.265 21.968 117.293 22.0802 117.125 21.968C117.489 20.7057 117.489 21.6033 117.573 20.5093C117.714 18.7701 117.882 19.219 117.826 18.5177C117.657 18.6579 117.686 18.7421 117.517 19.219C117.517 19.247 117.489 19.3312 117.489 19.3031C117.489 19.2751 117.461 19.3592 117.461 19.3873C117.321 18.5177 117.882 18.5177 117.966 16.9187L117.826 16.9468C117.657 17.0871 117.657 17.1993 117.629 17.5639C117.517 17.4237 117.601 17.8164 117.573 17.3956C117.573 17.1432 117.798 16.498 117.826 16.4419C118.583 14.1417 118.611 15.5442 118.723 14.0856C118.555 13.8331 118.667 13.8612 118.275 13.805L118.19 14.9552C117.854 14.9832 118.078 15.0393 117.91 15.3198C117.601 15.8808 117.601 15.5442 117.517 15.432C117.629 15.0674 117.657 15.0954 117.77 14.9552C117.966 14.6746 117.714 14.7588 118.05 14.7868L117.826 13.9734C117.826 13.9453 117.798 13.9173 117.798 13.8892L117.629 13.4965C117.377 14.6466 117.433 17.0029 117.265 18.6579C117.04 20.874 116.76 25.2219 116.816 27.1855L116.311 27.7466C115.946 28.1954 116.507 27.9149 115.918 28.1673C116.087 27.438 116.087 27.1014 116.143 26.344C116.227 25.3622 116.311 25.3902 116.367 24.8853C116.451 24.2121 116.367 24.9975 116.395 24.2401C116.423 23.4547 116.592 22.6412 116.648 21.9119C116.704 21.2667 116.704 20.6496 116.788 20.0605C117.012 18.6299 116.844 20.0885 116.9 18.714L117.321 15.2637L116.956 15.6003C116.928 15.3759 116.648 16.0772 116.984 15.404L117.012 15.3479L117.237 15.2918L117.405 13.6648C117.181 13.1599 117.686 13.6928 117.209 13.805C117.125 13.8331 117.125 13.805 117.096 13.4965C117.237 13.1879 117.209 13.4123 117.349 13.1879C117.461 13.0196 117.349 13.5526 117.489 12.8794C117.573 12.5147 117.517 12.2061 117.545 11.7573C117.629 10.2145 117.91 10.7475 118.162 10.6353C118.415 9.76566 118.275 9.42904 117.966 8.92412C117.994 9.48515 117.994 9.00827 117.966 9.6254C117.966 9.68151 117.91 10.1023 117.91 10.2145C117.798 10.0181 117.517 10.7194 117.77 9.31684C117.854 8.86802 117.854 9.09243 118.022 8.81191C118.022 8.78386 118.05 8.75581 118.05 8.72776C118.05 8.69971 118.078 8.67166 118.078 8.64361C118.331 8.25089 118.275 8.39115 118.555 8.5875C118.527 8.16674 118.499 8.16673 118.499 7.77402C118.499 6.96053 118.471 7.57766 118.555 7.29714C118.836 7.29714 118.78 7.71791 118.808 7.74597L118.864 8.75581C118.976 8.67166 119.341 8.4753 119.088 7.83012L118.864 7.40935C118.667 7.04468 118.499 6.96053 118.106 7.24104L118.022 8.61556C117.994 8.61556 117.573 8.61556 117.686 7.63376C117.742 6.90443 117.798 7.10079 118.022 6.90443C117.629 7.01663 117.461 6.73612 117.153 6.70807C116.9 6.68002 116.704 6.93248 116.423 6.68002C115.918 6.59586 114.067 8.36309 113.506 8.83997C112.496 9.73761 111.795 10.7475 110.897 11.8976C110.532 12.3464 110.084 13.0196 109.747 13.6087C108.877 15.1235 108.429 15.6284 107.531 17.5359C107.307 18.3494 106.914 18.8543 106.605 19.7239Z" fill="#548D4A"/>
<path fill-rule="evenodd" clip-rule="evenodd" d="M122.37 45.5872C122.258 45.7555 122.51 45.7835 122.23 45.6994L122.426 46.0079C122.37 46.3446 122.342 46.7934 122.342 46.9897C122.286 48.196 122.342 46.8775 121.865 48.1118C121.865 50.945 118.78 62.7826 119.733 67.1306C120.294 69.7394 122.202 70.637 123.885 69.7394C125.007 69.1503 127.139 66.5696 127.335 65.0548C126.55 64.9145 125.175 68.9259 123.548 68.3368C122.679 68.0282 122.875 65.3914 123.071 64.0169C123.997 57.2565 127.756 42.9784 122.37 45.5872Z" fill="#1A5436"/>
<path fill-rule="evenodd" clip-rule="evenodd" d="M119.537 17.6481C119.621 17.7322 119.677 17.9005 120.014 17.2834C120.322 16.6943 119.705 17.9566 120.182 16.8626C120.406 16.3297 120.098 16.6663 120.463 16.4138C120.491 17.9005 120.463 17.2834 120.014 17.9286C119.817 18.2372 119.789 18.2652 119.593 18.1249C119.565 18.1249 119.565 18.0969 119.537 18.0688C119.453 17.9847 119.537 17.9286 119.369 17.9566L119.2 18.4616C119.397 18.6299 119.228 18.4055 119.565 18.2091C119.453 18.714 119.397 19.1067 119.312 19.8641C119.593 19.5836 119.705 19.3312 119.845 18.8543C120.238 17.6761 120.042 18.0688 120.406 17.7883C120.378 19.247 120.378 18.9104 119.958 19.4153C119.705 19.7239 119.649 20.1166 119.369 20.4252C119.369 21.0142 119.425 21.0703 119.341 21.6875L119.284 22.3607C119.256 23.6791 119.256 24.3523 118.415 24.6048C118.471 23.5669 118.499 23.9316 118.639 23.3144L118.275 23.7913C118.275 25.6988 118.275 25.7549 117.742 25.6427C117.657 25.783 117.573 25.9232 117.461 26.0915C117.293 26.3159 117.321 26.1196 117.265 26.4842C117.153 26.905 117.096 26.7928 117.265 26.8209C117.545 26.6806 117.517 26.6245 117.742 26.2598C117.994 25.8671 117.966 26.0635 118.162 25.8952C118.415 25.6427 118.359 25.3341 118.611 24.9134C118.779 24.6609 118.92 24.5767 119.06 24.2962C119.453 23.6511 120.35 22.0802 120.827 21.7436C120.715 22.3887 120.659 22.5851 120.378 22.8656C119.958 23.3144 119.256 24.6329 118.892 25.25C118.162 26.4842 118.611 25.3061 117.882 26.9331L116.956 28.6442L117.012 27.438L116.984 27.2977C116.984 27.3258 116.956 27.3819 116.956 27.3819C116.956 27.4099 116.928 27.466 116.928 27.466L116.76 28.1954C116.704 30.0468 116.423 29.1491 116.002 30.72L116.872 29.4016C117.237 28.4759 117.826 27.7746 118.275 26.905C118.611 26.2037 119.06 25.5305 119.397 24.9414C119.593 24.5768 119.761 24.3804 119.958 24.0438C120.21 23.595 120.21 23.3425 120.575 23.062C120.35 24.8573 120.21 24.184 119.397 25.6988L116.227 32.2628C116.002 32.7677 115.89 33.2446 115.694 33.7215C116.059 33.441 116.479 32.2628 116.788 31.6737C117.124 31.0566 117.068 31.3932 117.321 30.6078C117.573 29.9065 117.573 29.9626 117.882 29.4296C118.275 28.7564 118.583 28.1393 118.976 27.2697C119.284 26.5964 119.733 25.4463 120.182 25.1097C120.042 26.1757 120.014 25.9232 119.873 26.1196C119.845 26.1476 119.845 26.1476 119.817 26.1757C119.817 26.2037 119.789 26.2037 119.761 26.2318C119.621 26.4562 119.425 26.9611 119.284 27.2977C119.06 27.8588 118.723 29.0089 118.359 29.3174C117.265 30.2151 117.994 29.4577 117.237 30.9444C116.872 31.6737 116.62 32.8519 116.62 33.8056V34.1142C116.676 33.7776 116.9 32.9641 117.012 32.6275C117.181 32.0945 117.321 31.814 117.489 31.3932C117.685 30.9163 117.742 30.6358 117.966 30.159C118.19 29.6821 118.331 29.5418 118.667 29.4016C118.611 30.3834 118.527 29.7943 118.134 30.72L117.798 31.7298C117.601 32.3189 117.012 33.3288 117.096 33.9739L117.293 33.2727C117.994 31.3091 118.247 31.4213 119.088 28.4198L119.172 28.1393C119.172 28.1112 119.2 28.0832 119.2 28.0551C119.397 27.6063 119.312 27.6624 119.565 27.466C119.565 28.8406 119.397 29.065 119.116 29.8784C118.583 31.4493 117.966 32.5153 117.181 34.7594L117.096 34.9557C117.405 35.1801 117.04 34.9557 117.237 34.9277H117.265L117.405 34.9557C117.461 35.4607 117.237 35.9656 117.04 36.4705C116.844 36.9754 116.704 37.4242 116.507 37.8731C116.591 38.0133 116.479 37.9853 116.62 37.8731C116.872 37.4804 116.704 37.5645 117.012 36.8632C117.124 36.5827 117.096 36.6669 117.209 36.3302C117.293 36.0217 117.209 36.3302 117.293 36.0497L117.77 34.6472C118.247 33.3288 119.144 29.9346 119.705 29.2613C119.621 30.3553 119.761 30.6639 119.958 31.5054C120.126 32.2348 120.21 32.7397 120.322 33.469C120.575 34.9277 120.603 36.0778 120.743 37.5645C120.883 38.7707 121.108 40.6782 121.276 41.7722C121.332 42.1649 121.893 45.2506 121.837 45.5311C121.809 45.3067 121.781 44.8859 121.725 44.5773L121.416 42.3332C121.192 41.1831 121.472 41.099 121.529 40.9868L122.23 45.0542L119.902 29.3174C120.294 30.4395 122.37 44.2968 122.482 45.1384C122.566 44.8578 122.594 44.8017 122.482 44.1285C122.426 43.7638 122.398 43.4553 122.342 43.1187L121.472 37.0596C121.276 35.7412 121.052 34.5069 120.883 33.1605C120.799 32.4872 120.687 31.8981 120.575 31.2249C120.463 30.5236 120.238 29.7101 120.35 29.2333C120.519 30.9725 120.771 30.6078 121.024 32.936C121.052 33.1885 122.679 44.2407 122.959 44.8298C122.847 41.8564 121.248 33.5251 120.827 30.3553C120.687 29.4016 120.659 28.8686 120.575 27.8307C120.463 26.6245 120.154 26.4562 120.35 25.3622C120.575 25.6708 120.715 27.1575 120.743 27.8027C120.771 29.2052 120.855 29.2894 120.996 30.4675C121.472 34.0581 122.09 36.5266 122.623 39.9489C122.735 40.7624 122.875 41.5197 123.015 42.3332C123.155 43.1467 123.268 44.0444 123.464 44.5773C123.436 43.7077 123.324 42.6979 123.184 42.0247C123.099 41.8564 123.127 41.9125 123.071 41.6881L122.735 39.8367C122.342 36.7791 122.061 35.7692 121.697 33.1605C121.5 31.7859 121.136 29.8223 121.052 28.5039C120.911 26.2879 120.322 25.25 120.519 23.9596C120.911 24.2121 120.715 23.6791 120.855 24.8012C121.22 27.7185 121.388 27.9149 121.697 30.1029C121.753 30.4114 121.781 30.5517 121.837 30.9163C121.949 31.5335 121.977 32.0945 122.09 32.8238C122.37 34.9277 122.174 34.4228 122.791 38.2377C122.987 38.378 122.651 38.406 123.043 37.9011C122.987 37.2279 123.015 37.817 122.931 37.284C122.623 35.3485 122.847 35.629 122.679 34.8996L121.977 29.9346C121.697 27.8307 121.809 28.532 121.557 27.9429C121.557 27.9149 121.529 27.8868 121.529 27.8588L121.472 27.6624L121.36 27.2416L120.743 23.3986C120.743 22.7815 120.771 22.7815 120.967 22.4168L121.416 25.5305C121.669 27.6624 121.613 27.5221 121.921 28.2795L121.024 22.1082C120.996 21.5753 121.024 21.3508 121.08 20.9862C121.613 21.2667 121.444 22.3046 121.669 24.2121L122.538 30.72C122.707 31.4774 122.931 33.0202 122.987 33.9459C123.015 34.9277 123.885 40.594 124.109 41.2392C124.193 40.7904 122.931 31.6737 122.735 30.4395L121.613 22.1363C121.472 21.0142 121.164 20.341 121.585 19.6678L124.446 40.3696C124.474 37.845 123.24 30.5236 122.931 27.9149C122.847 27.2697 122.791 27.2136 122.707 26.6525C122.651 26.1196 122.651 25.6708 122.594 25.0817C122.538 24.6329 122.454 24.2962 122.398 23.7352C122.202 21.9399 122.09 21.1545 121.809 19.6397C121.697 19.0226 121.725 18.6299 121.977 18.3213C122.061 18.7421 122.033 19.1348 122.09 19.7239L122.679 23.4827C123.071 26.2037 123.604 31.5335 124.053 33.8337C124.334 35.2643 124.558 37.6767 124.867 38.8268C124.811 35.9656 122.202 19.6397 122.286 17.6481C122.482 17.9286 122.51 17.9847 122.594 18.6579C122.651 19.1067 122.707 19.5836 122.763 20.0885C123.127 23.3705 125.287 37.284 125.792 38.378C125.708 36.8352 123.745 23.9596 123.38 21.8558C123.212 20.874 123.099 20.2288 122.987 19.1348C122.903 18.2091 122.51 16.9468 122.651 16.3577C122.819 16.4419 122.791 16.1053 122.987 17.4517C123.212 19.0226 122.763 18.1811 123.492 21.6594C124.193 24.9695 124.67 28.8967 125.259 32.3189C125.512 33.8617 126.129 36.0778 126.269 37.5084C126.466 36.7791 126.101 35.5448 125.961 34.7313C125.063 29.7382 124.081 22.9778 123.464 17.7883C123.324 16.6382 122.819 15.9369 123.184 15.2357C123.38 15.4881 123.352 15.7406 123.408 16.3858C123.464 16.8065 123.492 17.3115 123.576 17.6761C123.717 18.5457 123.829 19.2751 123.969 20.2568C124.558 25.0817 124.754 26.1196 125.428 30.5797L126.409 35.3485C126.437 35.2082 126.466 35.3765 126.437 34.8996L125.905 31.3652C125.68 30.0748 125.484 28.6161 125.315 27.2697L123.801 17.2554C123.717 16.6382 123.66 16.1333 123.576 15.432C123.492 14.5905 123.604 14.31 123.688 13.7489C123.268 13.8611 123.632 13.6367 123.436 14.0575C123.436 14.0856 123.38 14.2258 123.268 14.3941L122.763 15.5442C122.763 15.5723 122.735 15.6003 122.735 15.6003C122.735 15.6284 122.707 15.6564 122.707 15.6845C122.651 15.8247 122.566 16.3297 122.398 16.526C122.37 16.3016 122.342 16.1894 122.37 15.9089C122.426 14.7868 122.314 16.0772 122.426 15.5442L122.482 15.3479C122.482 15.3198 122.51 15.2637 122.51 15.2357C122.51 15.1796 122.623 14.871 122.623 14.8149L122.454 15.1235L122.426 15.1515L122.202 15.5442C122.146 15.6564 121.949 15.8808 121.837 15.8528C121.809 15.8528 121.809 15.8247 121.781 15.8247C121.753 15.7967 121.753 15.7686 121.725 15.7406L121.585 15.2918C121.865 14.7307 121.893 15.2076 122.202 14.6466C121.949 14.6466 121.949 14.6466 121.753 14.871L121.276 15.4601C121.36 13.6928 121.472 15.2076 121.809 13.8331C121.781 13.805 121.753 13.8331 121.753 13.805L121.557 13.7209C121.388 13.6087 121.472 13.7489 121.36 13.4965C121.529 12.8794 121.332 13.4404 121.557 13.1318C121.585 13.0757 121.641 13.1038 121.753 12.9355C122.146 12.3464 121.585 13.3843 121.893 12.6269C121.977 12.4305 121.893 12.4866 122.033 12.3183C121.585 12.4586 121.472 12.15 121.304 11.9537C121.557 12.5427 121.472 12.15 121.472 13.1599L121.22 13.4123C120.547 14.31 120.603 13.3562 120.603 14.4502C120.996 14.8429 120.799 14.31 121.136 13.8611L121.248 13.805C121.36 14.5063 121.304 14.1136 121.276 14.4502C121.192 15.0954 120.547 15.2357 120.406 15.3759C120.294 15.5162 120.21 15.6845 120.182 16.1053C120.042 16.1333 120.21 16.1333 120.21 16.5821L120.07 16.8065C120.042 16.8346 120.042 16.8626 120.014 16.8626C119.397 17.4517 119.817 16.8346 119.537 17.6481ZM121.388 18.0688C121.472 17.1151 121.613 17.2834 122.033 16.9468C121.921 17.7603 121.809 17.9286 121.388 18.0688ZM120.547 18.714C120.603 17.7883 120.715 17.5078 121.08 17.7603C121.08 17.8444 121.248 17.5639 121.08 18.1249C120.996 18.4055 120.715 18.6018 120.547 18.714ZM119.593 21.0984C119.677 20.2568 119.789 19.9763 120.182 19.808C120.799 19.5556 120.435 19.1909 121.08 19.0787C120.967 20.0324 120.687 19.808 120.35 20.1446C120.126 20.4252 119.902 20.8179 119.593 21.0984ZM119.481 21.6875C119.789 21.3789 119.958 21.2386 120.294 20.874C120.603 20.5374 120.799 20.313 121.136 20.0885C120.939 21.3508 120.771 21.2386 120.294 21.9119L119.284 23.2864L119.481 21.6875Z" fill="#1D6834"/>
<path fill-rule="evenodd" clip-rule="evenodd" d="M126.157 1.65883C126.858 2.21985 127.531 3.25775 127.812 3.39801C128.205 3.62242 128.71 4.18344 129.102 4.60421C129.467 4.96888 129.355 4.66032 129.411 5.55796C128.766 5.81042 128.934 5.3616 128.429 4.71642L127.672 3.90293C127.447 3.87488 127.616 3.79073 127.447 4.07124C127.756 4.3237 127.952 4.3237 128.317 4.74447C129.158 5.69822 128.906 5.22134 128.99 6.09093C128.149 6.5117 127.896 4.57616 127.419 4.99693C127.728 5.13719 127.728 5.24939 127.98 5.55796C128.289 5.95068 128.261 5.92263 128.317 6.84832C127.812 6.93247 127.924 6.98858 127.616 6.48365C127.307 5.95068 126.634 5.61406 126.157 4.94083C126.213 4.80057 126.269 4.2115 126.718 4.57616C126.886 4.71642 126.942 4.88473 127.167 5.10914L127.027 4.40785C125.54 3.65047 126.437 4.15539 125.259 3.14554C124.81 2.75283 124.39 2.0796 124.081 1.77103C123.66 1.37831 123.632 1.82713 123.632 1.82713C123.885 1.91129 124.221 2.16375 124.334 2.58452C124.614 2.80893 124.782 3.1736 125.035 3.53826C125.4 4.04319 125.372 4.01514 125.904 3.93098C126.045 4.71642 126.101 4.63227 126.157 5.19329C125.652 4.94083 125.961 4.57616 125.484 4.60421C125.484 4.66032 125.512 4.68837 125.54 4.71642L125.652 4.91278C126.185 5.72627 125.68 4.46396 126.241 6.3434C126.241 6.28729 126.269 6.23119 126.269 6.17509C126.269 6.14704 126.297 6.06288 126.297 6.03483L126.409 5.4738L126.802 5.78237C126.942 5.92263 127.055 5.97873 127.167 6.09093C128.036 6.84832 127.784 6.73611 127.896 7.32519C126.942 7.32519 126.998 6.73611 126.381 6.4556C126.606 6.59586 126.718 6.93247 126.886 7.07273C127.335 7.4935 127.251 7.10078 127.391 7.97037C126.522 8.41919 126.802 7.91427 126.578 7.80206C126.858 8.05453 126.858 7.91427 126.718 8.95217C126.381 8.69971 126.522 9.03632 126.437 8.30699C126.409 8.16673 126.466 7.83012 126.466 7.71791C126.101 7.66181 125.961 7.29714 125.596 7.15688C125.624 6.65196 125.624 7.10078 125.512 7.24104C125.512 7.26909 125.456 7.38129 125.456 7.35324C125.456 7.29714 125.4 7.4374 125.372 7.46545C125.315 6.90442 125.4 7.26909 125.203 6.90442C125.203 6.87637 125.175 6.84832 125.147 6.84832C124.67 6.09093 124.698 6.90442 124.39 6.48365C124.306 6.37145 124.418 6.25924 124.137 5.95068C124.109 5.92263 123.829 5.69821 123.773 5.67016C123.829 6.28729 123.773 5.83847 123.857 6.3434C123.885 6.31534 123.913 6.28729 123.913 6.25924C124.221 6.17509 124.109 6.3995 124.502 7.24104C124.698 7.15688 124.334 6.53975 124.951 6.87637C125.147 6.98858 125.175 7.32519 125.259 7.63376C125.512 7.57765 125.512 7.35324 125.848 7.52155C126.213 7.71791 126.213 8.19478 126.213 8.44724L125.933 8.61555C125.708 8.5875 125.82 8.30699 125.456 8.27894L125.848 8.67165C125.876 8.69971 126.045 8.78386 126.101 8.83996L126.325 9.09242L126.157 9.40099C125.82 9.84981 126.129 9.12048 125.736 9.90591C125.736 9.93396 125.708 9.96202 125.708 9.99007C125.708 10.0181 125.68 10.0462 125.652 10.0742L125.175 10.9999C125.147 11.028 125.091 11.0841 125.091 11.1121C125.091 11.1402 125.063 11.1402 125.035 11.1682L124.586 11.9256C124.586 11.8976 124.558 11.9817 124.558 12.0098C124.306 12.0939 124.249 12.1781 124.053 12.122C123.857 12.0659 123.969 11.8134 123.745 12.1781C123.801 12.2342 123.829 12.2903 123.969 12.3744L124.362 12.4866C124.109 12.2903 124.334 12.5147 124.053 12.8513C123.716 13.244 123.829 12.5708 123.745 13.3282C123.716 14.5624 124.334 19.1348 124.53 20.313L125.456 26.6806C125.596 28.0832 126.494 33.0763 126.942 34.6752L127.111 35.1801C126.998 33.8056 126.718 32.2909 126.55 30.8602C126.466 30.1029 126.381 29.4577 126.269 28.7003C126.213 28.3917 126.157 28.0551 126.129 27.7185L126.045 26.9611C126.045 26.6245 126.045 26.7367 126.073 26.6245C126.157 26.9331 126.241 27.2977 126.325 27.7185C126.353 27.9149 126.381 28.0832 126.437 28.2795C126.606 28.8967 126.381 28.0832 126.494 28.5039C126.578 28.7283 126.55 28.6722 126.634 28.8406C126.55 26.6245 124.334 13.7489 124.586 12.5708C124.951 13.0477 126.157 24.0157 126.522 26.2879C126.718 27.5782 126.942 29.9346 127.335 30.5797L126.213 20.9301C126.101 20.1727 126.017 19.4434 125.904 18.686L125.203 14.0575C125.119 13.3843 124.839 12.0098 124.839 11.9817L125.091 11.8415C125.343 14.5624 126.073 18.5177 126.522 21.2106C126.886 23.5389 127.644 28.8406 128.261 30.0748C128.205 27.9149 127.56 24.9695 127.251 22.8656L126.886 20.3691C126.662 18.9665 125.315 11.8695 125.428 10.9999C125.736 11.2804 125.792 12.3744 125.904 13.1038L127.111 19.8922C127.391 21.3228 127.644 22.8656 127.952 24.2121C128.261 25.5585 128.682 27.1855 128.906 28.5039C128.962 28.3076 128.962 28.4198 128.962 28.0271C128.962 27.8307 128.906 27.5782 128.878 27.438C128.373 24.5206 125.708 11.2243 125.82 10.5791C126.045 10.8036 126.073 11.617 126.157 12.2061C126.634 15.0674 127.924 23.0059 128.625 24.5487C128.625 23.7072 128.205 21.8838 128.036 20.9862C127.84 19.78 127.616 18.5738 127.419 17.3115C127.139 15.404 126.914 13.5526 126.578 11.7012C126.381 10.6072 126.185 11.1402 126.101 10.0742C126.578 10.4389 126.157 10.6352 126.69 10.9999C126.606 10.2706 126.437 10.1864 126.494 9.76566C126.774 10.0462 126.69 11.3085 126.746 11.8695L129.327 25.9232L128.373 18.2652C128.962 19.0226 128.794 21.1825 129.271 22.1643C129.215 20.2849 128.682 17.7603 128.541 15.8808C128.625 16.0492 128.597 15.9089 128.682 16.1333C129.018 17.0309 129.046 18.4616 129.495 19.0226L128.513 13.4404C128.289 12.3464 127.475 9.14853 127.419 8.27894C127.784 8.25089 127.7 8.50335 127.84 9.20463C128.261 11.1402 129.607 18.0969 129.916 18.8262L129.579 15.965C129.215 13.5526 128.794 11.2243 128.233 8.98022C128.092 8.44724 127.924 8.05453 128.008 7.52155C128.261 7.46545 128.205 7.4935 128.317 7.97037L128.962 10.9719C129.186 11.8695 129.663 14.1978 129.916 14.871L129.972 14.4502C130 13.8611 129.888 13.1038 129.776 12.5708C129.467 10.8597 128.766 8.5875 128.541 6.93247C129.046 6.79222 128.878 7.24104 129.299 9.03632C129.467 9.73761 129.691 10.9158 129.944 11.3365C130 9.70955 129.916 9.65345 129.635 8.6436C129.495 8.11063 129.13 7.01663 129.074 6.48365C129.495 5.95068 129.607 6.96052 129.748 7.63376L130 8.36309C129.972 6.76417 129.944 7.07273 129.663 6.00678L129.86 5.72627C129.944 5.52991 130 5.92263 129.972 5.19329C129.944 4.68837 129.804 4.63226 129.579 4.40785C129.327 4.15539 129.13 4.04319 128.878 3.65047C128.738 3.42606 128.766 3.56632 128.71 3.1736C129.327 3.1736 129.495 4.01514 129.944 4.12734C129.972 2.97724 129.271 2.52842 128.85 2.10765C128.457 1.71493 127.616 1.1539 127.335 0.789235C127.616 0.452619 129.271 2.2479 129.551 2.69672C129.86 3.20165 129.467 2.92114 129.944 3.2297L129.804 1.0417C129.776 1.0417 129.748 1.01365 129.748 1.01365C129.635 0.957543 129.607 0.985594 129.495 0.90144C129.13 0.67703 128.682 -0.416972 128.289 0.172106C128.541 0.677029 129.383 1.43441 129.719 1.79908C129.635 1.91129 128.541 0.985594 128.261 0.677029C127.7 0.031849 127.055 0.172106 126.353 0.368465C126.522 1.12585 126.97 0.817286 127.195 1.74298C126.522 1.51857 125.848 0.0318494 125.287 0.789235L125.708 1.18195C125.876 1.37831 126.017 1.54662 126.157 1.65883Z" fill="#356933"/>
<path fill-rule="evenodd" clip-rule="evenodd" d="M99.2278 87.4117C99.5083 92.5451 100.406 94.7611 103.127 94.2282C103.576 94.144 104.193 93.6671 104.501 93.2464C106.465 90.4693 105.988 81.2685 104.81 79.3049C103.632 77.3413 101.584 77.4815 100.518 78.8841C99.368 80.3708 99.0595 84.5505 99.2278 87.4117ZM104.501 87.047C104.417 90.4693 103.8 92.8817 101.977 92.2926C100.518 91.8157 100.35 88.1971 100.434 85.0554C100.518 81.6051 101.191 79.2768 102.987 79.8378C103.52 80.0061 103.912 80.5672 104.137 81.3807C104.221 81.6892 104.277 81.9697 104.333 82.3063C104.558 83.7089 104.558 85.5603 104.501 87.047Z" fill="#25449B"/>
<path fill-rule="evenodd" clip-rule="evenodd" d="M116.535 6.76416C116.816 6.98857 117.012 6.76416 117.265 6.79221C117.573 6.82027 117.742 7.10078 118.134 6.98857C117.938 7.15688 117.882 6.98857 117.798 7.71791C117.714 8.6997 118.134 8.67165 118.134 8.6997L118.219 7.32519C118.583 7.07273 118.78 7.12883 118.976 7.4935L119.2 7.91427C119.453 8.55945 119.088 8.78386 118.976 8.83996L118.92 7.83011C118.92 7.80206 118.948 7.38129 118.667 7.38129C118.583 7.66181 118.611 7.04468 118.611 7.85816C118.611 8.25088 118.611 8.25088 118.667 8.67165C118.387 8.47529 118.443 8.36309 118.19 8.72776C118.162 8.75581 118.162 8.78386 118.162 8.81191C118.162 8.83996 118.134 8.86801 118.134 8.89606C117.966 9.17658 117.966 8.95217 117.882 9.40099C117.629 10.8036 117.91 10.1023 118.022 10.2986C118.05 10.1864 118.078 9.76565 118.078 9.70955C118.106 9.09242 118.134 9.54124 118.078 9.00827C118.387 9.51319 118.527 9.84981 118.275 10.7194C117.994 10.8316 117.742 10.2986 117.657 11.8415C117.629 12.2903 117.686 12.5988 117.601 12.9635C117.461 13.6367 117.573 13.1038 117.461 13.2721C117.321 13.4684 117.349 13.2721 117.209 13.5806C117.237 13.8892 117.265 13.9172 117.321 13.8892C117.798 13.777 117.293 13.244 117.517 13.7489L117.349 15.3759L117.125 15.432C117.125 15.432 117.096 15.4601 117.096 15.4881C116.76 16.1894 117.04 15.4601 117.068 15.6845L117.433 15.3479L117.012 18.7982C116.956 20.1727 117.125 18.714 116.9 20.1446C116.816 20.7337 116.788 21.3508 116.76 21.996C116.704 22.6973 116.535 23.5388 116.507 24.3243C116.479 25.0817 116.592 24.2682 116.479 24.9695C116.423 25.4744 116.339 25.4463 116.255 26.4281C116.199 27.1855 116.199 27.5221 116.031 28.2515C116.592 27.999 116.059 28.2795 116.423 27.8307L116.928 27.2697C116.872 25.3061 117.153 20.9581 117.377 18.7421C117.545 17.1151 117.489 14.7588 117.742 13.5806L117.91 13.9734C117.91 14.0014 117.938 14.0295 117.938 14.0575L118.162 14.871C117.826 14.8429 118.106 14.7588 117.882 15.0393C117.77 15.1796 117.77 15.1515 117.629 15.5162C117.714 15.6284 117.714 15.965 118.022 15.404C118.162 15.1235 117.966 15.0674 118.303 15.0393L118.387 13.8892C118.752 13.9453 118.667 13.9172 118.836 14.1697L119.06 14.1978C119.284 13.7209 120.042 13.5526 120.35 13.805C120.35 14.1697 120.407 14.0295 120.294 14.31C120.182 14.5905 120.042 14.5905 119.93 14.6185C119.986 13.9172 119.845 14.5063 120.014 14.1978C120.014 14.1697 120.042 14.1417 120.07 14.1136C120.07 14.0856 120.126 14.0856 120.126 14.0575C120.126 14.0295 120.154 14.0575 120.182 14.0295L119.761 13.9453C119.677 14.7588 119.481 14.2819 118.808 15.3479C118.78 15.3759 118.751 15.4601 118.723 15.4881C118.723 15.5162 118.695 15.5442 118.667 15.5723C118.667 15.6003 118.639 15.6284 118.639 15.6564C118.443 16.1053 118.443 16.3297 118.471 16.8346C118.471 16.8626 118.499 16.9468 118.499 16.9748C118.948 16.7504 118.695 16.8346 118.892 16.0211C119.004 15.6003 119.172 15.4881 119.453 15.3479C119.256 16.7785 118.892 16.1333 118.808 16.8346C118.723 17.3956 119.032 17.1712 118.639 17.9286L118.443 19.0226C118.555 19.4714 118.527 19.3312 118.499 19.8361L118.275 21.1825C118.639 21.0703 118.639 21.0423 118.723 20.7057C118.948 19.8361 118.527 20.874 118.836 20.1166C119.032 19.6117 119.116 19.5275 119.144 18.2652C118.611 18.5177 119.004 18.4055 118.611 18.8543C118.78 18.0127 118.751 18.5177 119.116 18.0127C119.341 17.6761 119.369 17.3956 119.397 16.8907C119.397 18.2933 119.425 17.3956 119.509 17.592C119.789 16.8065 119.369 17.3956 119.958 16.7224C119.986 16.6943 119.986 16.6663 120.014 16.6663L120.154 16.4419C120.154 15.993 119.986 15.993 120.126 15.965C120.154 15.5442 120.238 15.3759 120.35 15.2357C120.463 15.0954 121.108 14.9551 121.22 14.31C121.276 13.9734 121.304 14.3661 121.192 13.6648L121.08 13.7209C120.743 14.1417 120.939 14.7027 120.547 14.31C120.547 13.216 120.519 14.1697 121.164 13.2721L121.416 13.0196C121.416 12.0098 121.472 12.4025 121.248 11.8134C121.416 12.0098 121.529 12.3183 121.977 12.1781C121.809 12.3464 121.921 12.3183 121.837 12.4866C121.529 13.244 122.118 12.2061 121.697 12.7952C121.585 12.9635 121.529 12.9635 121.501 12.9916C121.248 13.3001 121.472 12.7391 121.304 13.3562C121.444 13.5806 121.332 13.4404 121.501 13.5806L121.697 13.6648C121.697 13.6648 121.725 13.6648 121.753 13.6928C121.416 15.0674 121.304 13.5526 121.22 15.3198L121.697 14.7307C121.893 14.5063 121.921 14.5063 122.146 14.5063C121.837 15.0674 121.837 14.5905 121.529 15.1515L121.669 15.6003C121.697 15.6284 121.697 15.6564 121.725 15.6845C121.753 15.7125 121.753 15.7125 121.781 15.7125C121.865 15.7686 122.062 15.5162 122.146 15.404L122.37 15.0113L122.398 14.9832L122.566 14.6746C122.566 14.7307 122.454 15.0393 122.454 15.0954C122.454 15.1235 122.426 15.1796 122.426 15.2076L122.37 15.404C122.258 15.9369 122.37 14.6466 122.314 15.7686C122.314 16.0491 122.314 16.1894 122.342 16.3858C122.538 16.1894 122.623 15.6564 122.651 15.5442C122.651 15.5162 122.679 15.4881 122.679 15.4601C122.679 15.432 122.707 15.404 122.707 15.404L123.24 14.338C123.324 14.1697 123.38 14.0295 123.408 14.0014C123.632 13.5806 123.24 13.805 123.66 13.6928C123.548 14.2539 123.464 14.5344 123.548 15.3759C123.632 16.0491 123.689 16.5541 123.773 17.1993L125.287 27.2136L125.259 26.5964C125.259 26.5964 125.4 26.7928 125.428 26.8209L124.502 20.4532C124.306 19.247 123.689 14.6746 123.717 13.4684C123.604 13.3562 123.66 13.3843 123.576 13.4123C123.857 13.0196 123.66 13.4684 123.801 12.8232L123.604 12.5708C123.52 12.4305 123.464 12.1781 123.128 12.1781C123.296 12.4866 123.268 12.0098 123.268 12.0098L122.847 11.9817C122.651 12.0659 122.847 12.15 122.595 12.122L122.314 12.0378C122.286 12.0378 122.258 12.0378 122.23 12.0098L122.398 11.8976C122.707 11.617 122.707 12.1781 122.707 11.2804C122.707 10.495 122.903 10.7194 122.37 10.7194C122.454 9.90591 122.735 11.1682 123.268 10.8877C123.043 10.495 122.931 10.4389 122.819 10.0742C122.959 9.65345 122.623 10.0181 122.987 9.82176C123.296 9.65345 123.128 9.82176 123.184 9.90591C123.408 10.1864 122.959 10.2986 123.548 10.2706C123.576 10.2706 123.604 10.2706 123.632 10.2425C123.632 10.1864 123.66 10.0462 123.66 10.0742C123.66 10.1023 123.689 9.96201 123.66 9.90591C123.632 8.98022 123.829 10.6072 123.66 9.59735C123.576 9.17658 123.745 9.20463 122.819 9.09242C122.763 8.92411 122.763 8.6436 122.735 8.50335C122.679 8.81191 122.595 8.86801 122.426 8.50335L122.286 7.97037C121.837 8.05452 121.893 8.19478 121.613 8.5314C121.585 8.55945 121.557 8.5875 121.557 8.61555C121.697 8.98022 121.921 9.09242 122.146 8.98022C121.893 9.6254 121.949 9.31683 121.977 10.1303L121.388 9.93396C121.585 9.65345 121.501 10.2706 121.529 9.45709C121.585 8.11063 121.501 8.92411 121.388 8.67165C121.22 9.00827 121.22 10.0181 120.968 9.7376C120.911 9.65345 120.827 9.34488 120.827 9.20463C120.771 8.78386 120.799 8.36309 120.743 8.11063C120.659 7.74596 120.687 7.88622 120.547 7.80206C120.519 7.80206 120.519 7.77401 120.491 7.77401C120.491 7.77401 120.407 7.77401 120.294 7.66181C120.266 8.5875 120.154 7.94232 120.21 9.45709C119.986 9.28878 119.733 9.59735 119.621 8.6436C119.733 8.36309 119.677 8.33504 119.817 8.22283L120.042 8.11063C120.07 8.11063 120.07 8.08258 120.098 8.08258C120.126 8.08258 120.126 8.05452 120.154 8.02647L120.238 7.91427C120.575 7.46545 120.491 8.22283 120.519 6.84832C119.761 7.24104 120.547 7.4935 119.93 7.66181L119.958 6.5117C119.453 6.76416 119.789 6.5117 119.621 6.98857C119.621 7.01662 119.593 7.07273 119.593 7.12883L119.537 7.35324C119.481 7.46545 119.705 7.6057 119.341 7.5496C118.808 7.4935 119.509 7.01662 118.78 6.90442C118.471 6.84832 118.415 6.96052 118.303 6.34339L118.583 5.86652C118.583 5.83847 118.611 5.81042 118.639 5.78237C118.639 5.75432 118.667 5.72626 118.695 5.69821C118.695 5.67016 118.723 5.64211 118.751 5.61406C118.864 5.92262 119.817 6.25924 120.042 6.37144C120.294 6.48365 120.575 6.87637 120.771 6.76416C121.136 6.53975 121.052 6.87637 121.052 5.72626L120.715 6.11898C120.519 6.28729 121.108 6.53975 120.407 6.17509C120.154 6.03483 120.154 5.75432 119.817 5.75432C119.817 5.72627 119.817 5.64211 119.817 5.67016L119.874 5.16524C120.631 5.33355 121.977 6.3995 122.23 6.25924C122.763 6.00678 122.398 6.48365 122.538 5.72626C122.37 5.4177 122.791 5.30549 122.202 5.52991C122.033 5.58601 122.202 5.67016 121.949 5.81042C121.613 5.33355 120.968 5.4738 120.883 4.3798L121.529 4.71642C122.005 4.85667 122.258 5.19329 122.707 5.38965C123.128 5.58601 123.408 4.88472 123.52 6.37144L122.959 5.78237C122.987 6.93247 122.819 6.5117 123.184 6.70806C123.184 6.73611 123.156 6.76416 123.156 6.82027L123.071 7.12883C123.043 7.43739 123.043 6.65196 123.099 7.26909L123.128 7.4935C122.595 7.6618 122.623 7.4935 122.398 6.70806L122.23 6.84832C121.753 7.26909 122.286 6.87637 122.034 7.01663C121.893 7.10078 121.893 7.07273 121.753 7.04468C121.613 6.4556 121.753 5.69821 121.22 6.37144C121.276 6.84832 121.304 6.79221 121.444 7.01663C122.174 8.19478 121.837 7.10078 122.314 7.66181C122.566 7.94232 122.286 7.83011 122.623 7.91427C122.791 7.97037 122.763 7.85816 122.987 7.97037C123.352 8.13868 123.745 8.81191 124.165 8.47529C124.474 8.25088 124.081 8.92411 124.39 8.16673C123.885 7.46545 123.464 8.50335 123.352 7.52155L123.408 7.01663C123.801 7.5496 123.66 6.93247 123.717 7.66181C123.885 6.90442 123.548 7.63375 123.857 7.4374C124.053 7.29714 124.193 7.4935 124.278 7.6057C124.558 7.99842 123.997 7.68986 124.53 7.97037L124.586 7.66181C124.586 7.63375 124.558 7.46545 124.53 7.40934C124.137 6.5678 124.25 6.31534 123.941 6.42755C123.941 6.42755 123.885 6.4556 123.885 6.5117C123.773 6.00678 123.857 6.4556 123.801 5.83847C123.857 5.89457 124.137 6.09093 124.165 6.11898C124.446 6.4556 124.334 6.5678 124.418 6.65196C124.726 7.04468 124.698 6.25924 125.175 7.01663C125.175 7.04468 125.203 7.07273 125.231 7.07273C125.456 7.43739 125.344 7.07273 125.4 7.63375C125.428 7.6057 125.456 7.46545 125.484 7.52155C125.484 7.5496 125.54 7.43739 125.54 7.40934C125.652 7.24104 125.652 6.82027 125.624 7.32519C125.989 7.4935 126.101 7.83011 126.494 7.88622C126.494 7.99842 126.438 8.33504 126.466 8.47529C126.578 9.20463 126.41 8.83996 126.746 9.12047C126.858 8.08258 126.886 8.22283 126.606 7.97037C126.83 8.05452 126.578 8.5875 127.419 8.13868C127.279 7.24104 127.363 7.63375 126.914 7.24104C126.774 7.10078 126.634 6.79221 126.41 6.62391C127.027 6.90442 126.971 7.4935 127.924 7.4935C127.84 6.90442 128.065 7.01663 127.195 6.25924C127.055 6.14703 126.971 6.09093 126.83 5.95068L126.438 5.64211L126.325 6.20314C126.325 6.25924 126.297 6.31534 126.297 6.34339C126.297 6.3995 126.297 6.4556 126.269 6.5117C125.708 4.63226 126.241 5.89457 125.68 5.08108L125.568 4.88473C125.54 4.85667 125.54 4.82862 125.512 4.77252C126.017 4.74447 125.68 5.10914 126.185 5.3616C126.157 4.80057 126.073 4.88473 125.933 4.09929C125.4 4.18344 125.428 4.23954 125.063 3.70657C124.811 3.3419 124.642 3.00529 124.362 2.75283C124.306 2.89308 124.53 3.20165 123.885 2.58452C123.296 1.99544 122.847 1.54662 122.146 2.1357C122.202 2.61257 122.174 2.52842 122.623 2.80893C122.903 2.97724 122.959 3.00529 123.043 3.48216C122.707 3.31385 122.314 3.2297 122.034 2.92113C121.613 2.52841 121.444 2.44426 120.968 2.69672C121.164 3.76267 121.557 3.00529 121.781 3.84683C121.108 4.01513 120.238 2.66867 119.817 3.59437C120.126 4.23955 120.378 3.73462 120.491 4.40785C120.014 4.74447 119.705 3.73462 119.172 3.93098C119.172 3.93098 118.948 4.07124 118.92 4.07124L118.667 4.40785C119.06 5.05303 119.06 4.3798 119.228 5.05303C118.752 5.3616 118.106 4.88473 117.601 4.91278C117.742 5.69821 117.77 5.4738 118.078 5.83847C118.05 5.81042 117.068 6.17509 116.732 6.17509L116.535 6.76416Z" fill="#6EA952"/>
<path fill-rule="evenodd" clip-rule="evenodd" d="M40.4323 99.3335C41.0774 100.035 42.7044 100.035 43.3776 99.4738C44.2753 98.7444 44.5839 96.9211 44.6119 95.0136V84.5224C44.5839 82.5308 44.4155 83.2882 43.6582 83.4004C43.2654 83.4565 42.7605 82.9796 42.1714 83.0357C41.6946 83.0637 41.2177 83.3443 40.8811 83.8492C40.0676 84.9712 39.9273 86.7946 39.8712 88.7582C39.6468 97.0052 43.4057 94.116 43.4057 94.116C43.574 95.7429 43.4338 97.1455 42.7886 97.7346C41.6385 98.7725 40.264 96.304 40.4323 99.3335ZM43.4057 92.6292C42.9008 92.7695 41.6665 93.5549 41.2738 91.3108C41.0494 89.9924 41.0213 86.7385 41.4702 85.7567C41.6946 85.2517 42.0873 84.7188 42.5642 84.7188C42.7044 84.7188 43.0971 84.859 43.2374 84.9432C43.4899 85.1115 43.4618 85.42 43.4899 86.0933C43.5179 87.5239 43.5179 91.395 43.4057 92.6292Z" fill="#25449B"/>
<path fill-rule="evenodd" clip-rule="evenodd" d="M26.6308 78.4914C26.5747 79.1365 27.7529 85.925 27.9493 87.1312C28.1737 88.6179 28.342 89.9643 28.5944 91.423C29.0713 94.3403 28.7627 94.3965 29.8848 94.3684C30.53 94.3403 30.6702 94.8172 30.8385 93.5269C31.2032 90.862 33.0546 79.1646 33.0265 78.3792C32.6619 78.323 32.0728 78.1828 31.7923 78.6036C31.6801 79.1646 31.4557 81.3806 31.3435 82.138L30.3897 89.0387C30.2214 90.1046 30.1092 91.956 29.8287 92.2085C29.7726 91.956 28.0615 79.4451 27.8371 78.3792C27.5004 78.295 26.9394 78.2389 26.6308 78.4914Z" fill="#25449B"/>
<path fill-rule="evenodd" clip-rule="evenodd" d="M62.705 91.3108C62.3123 91.3108 60.1524 93.4988 59.0303 91.0864C58.329 89.5716 58.1327 85.6725 58.5254 83.1479C58.7218 81.8295 58.9742 80.8477 59.5072 80.2867C60.0402 79.7256 60.9378 79.6415 61.4988 80.1184C62.0038 80.5672 62.0599 80.9879 62.2843 81.044C62.5928 81.1562 62.9294 80.455 62.9294 79.922C62.9294 79.0524 61.9196 78.2389 61.4988 78.0706C60.0402 77.4254 58.6656 78.1267 57.9644 79.8939C57.1789 81.9136 57.0387 84.5785 57.1509 87.8325C57.5155 96.6406 62.0879 94.2843 62.8733 93.2183C62.9294 92.489 62.8453 91.928 62.705 91.3108Z" fill="#25449B"/>
<path fill-rule="evenodd" clip-rule="evenodd" d="M63.883 90.1888C64.0232 93.611 65.3977 94.7331 67.1089 94.144C67.9224 93.8635 68.3712 93.022 68.6517 91.8158C68.9322 90.5815 68.9883 88.3374 68.8761 86.8787C68.7078 84.9712 68.5395 84.1016 67.9224 83.3723C67.3052 82.671 66.4356 82.6149 65.6782 82.8393C63.8549 83.3723 63.7708 87.2153 63.883 90.1888ZM66.2954 84.3822C66.6881 84.2419 67.2211 84.7188 67.4174 85.2798C67.6418 85.925 67.726 87.1312 67.754 88.0288C67.7821 90.1327 67.6418 92.2085 66.5759 92.489C65.3416 92.7975 65.0331 91.1425 65.0331 88.7582C65.0331 86.6543 65.1453 84.7749 66.2954 84.3822Z" fill="#25449B"/>
<path fill-rule="evenodd" clip-rule="evenodd" d="M74.6267 89.9644C74.767 93.3866 76.0012 94.8733 77.7684 94.2282C79.5357 93.583 79.7881 90.5815 79.6479 87.1873C79.5076 83.3723 78.3575 82.3625 76.45 82.8954C74.767 83.3723 74.4864 86.6543 74.6267 89.9644ZM78.4697 89.4594C78.2734 93.8354 76.3659 92.6012 76.1415 91.8157C75.6085 90.0766 75.7207 85.8969 76.2817 84.9712C76.5622 84.5224 78.0209 83.3162 78.4136 86.2896C78.5258 87.1592 78.5258 88.5618 78.4697 89.4594Z" fill="#25449B"/>
<path fill-rule="evenodd" clip-rule="evenodd" d="M86.5484 83.0357C86.4082 83.6809 86.4923 87.5239 86.4923 88.5057C86.4923 89.9924 86.4362 92.3768 86.857 93.3305C87.2778 94.2843 88.2876 94.5648 89.045 94.1159C89.4097 93.9196 89.6902 93.2464 90.0548 93.6952C90.3354 94.0879 90.4756 94.3123 91.0366 94.0879L90.9805 85.7286C90.9805 84.2419 91.3452 82.1661 89.8304 82.9796C89.7182 84.2419 89.8024 87.4117 89.8024 88.8423C89.8024 91.1145 89.9707 92.2365 88.7084 92.3768C87.5863 92.489 87.6705 90.7778 87.6705 88.7301C87.6705 87.6642 87.7266 83.737 87.5863 83.0076C87.3339 82.8954 86.857 82.8393 86.5484 83.0357Z" fill="#25449B"/>
<path fill-rule="evenodd" clip-rule="evenodd" d="M48.3988 83.3443C48.3707 84.4383 48.4549 85.5603 48.4549 86.7104V93.583C48.4549 94.2843 48.511 94.3684 48.8476 94.4245C49.9697 94.5648 49.6331 94.677 49.6331 88.5057C49.6331 85.953 49.4367 85.42 50.699 84.9712C51.793 84.6066 51.8491 86.486 51.8211 88.3654C51.8211 89.6838 51.7369 92.9658 51.8491 94.0879C52.0735 94.4806 52.5504 94.4526 52.9151 94.3965C53.0834 93.4147 53.0273 86.3457 52.887 85.0554C52.4662 81.4368 49.8575 83.765 49.5208 83.8211C49.3806 83.4845 49.3806 83.3443 49.072 83.2601C48.8476 83.232 48.5952 83.204 48.3988 83.3443Z" fill="#25449B"/>
<path fill-rule="evenodd" clip-rule="evenodd" d="M80.7139 83.0076C80.6578 83.9053 80.742 84.831 80.77 85.7286C80.7981 87.7483 80.7139 92.7414 80.8542 93.9757C81.2189 94.2282 81.9201 94.4806 81.9482 93.4427V91.2547C81.9762 86.8226 81.5835 84.8871 82.9861 84.6346C83.5471 84.5224 83.8276 84.5505 83.9959 85.4761C84.3606 87.1592 83.9679 91.8157 84.1923 93.8915C84.4167 94.0318 85.1741 94.4245 85.2863 93.8074L85.3144 89.4314C85.3144 84.8871 85.5949 81.016 82.0324 83.4565C81.5835 82.9796 81.3311 82.6991 80.7139 83.0076Z" fill="#25449B"/>
<path fill-rule="evenodd" clip-rule="evenodd" d="M92.6357 82.9235C92.1589 83.4004 91.5137 82.3064 91.8503 84.7468C92.243 84.9432 92.2711 84.7468 92.5235 84.831C93.1407 84.9993 92.2991 91.8438 93.0565 93.3305C93.7578 94.677 95.2726 94.3123 95.6653 93.8916C95.9177 93.611 95.9458 92.7134 95.7494 92.2085C95.1884 91.7877 94.0383 93.8354 93.898 90.5815C93.8419 89.4314 93.8419 85.8689 93.9261 84.8029C94.431 84.6346 95.2164 85.1115 95.6372 84.6907C95.7775 84.326 95.8616 83.5406 95.6933 83.0918C95.4409 82.7552 94.2908 82.9515 93.9261 82.8674L93.87 80.5672C93.6175 80.455 93.4773 80.483 93.2529 80.5391C92.2991 80.7074 92.8882 81.577 92.6357 82.9235Z" fill="#25449B"/>
<path fill-rule="evenodd" clip-rule="evenodd" d="M74.0096 92.1243C73.6168 91.7877 72.046 93.4708 71.3727 91.7596C70.8959 90.5254 70.7837 87.8044 71.1483 86.1213C71.3166 85.3359 71.5971 84.6907 72.046 84.5505C72.7753 84.326 72.9156 84.5505 73.3924 85.1115C73.9535 85.7847 74.1779 83.9614 73.9535 83.5406C73.5327 82.7832 69.2128 80.5672 69.7738 90.1607C70.0263 94.5367 72.074 95.1258 73.9815 93.6391C74.0376 93.1342 74.0937 92.6012 74.0096 92.1243Z" fill="#25449B"/>
<path fill-rule="evenodd" clip-rule="evenodd" d="M109.494 77.5937C109.438 78.4072 109.438 86.2055 109.466 87.6642C109.466 90.8059 109.13 94.8172 111.121 94.144C111.262 93.6952 111.262 92.7414 111.065 92.4048C110.729 91.8718 110.701 92.489 110.673 91.0023C110.616 89.4875 110.644 87.9727 110.644 86.4579C110.644 84.8871 110.729 78.295 110.616 77.3693C110.448 77.201 110.588 77.2571 110.336 77.3132L109.494 77.5937Z" fill="#25449B"/>
<path fill-rule="evenodd" clip-rule="evenodd" d="M37.1781 83.2881C37.0098 83.204 36.5329 83.1759 36.3646 83.2601C36.1122 83.3723 36.1683 83.9053 36.2244 84.4663C36.4207 88.0849 36.1963 92.2646 36.3366 94.3404C36.6451 94.4526 37.1501 94.6209 37.4867 94.3965C37.6269 93.078 37.5428 89.1789 37.5428 87.58C37.5428 86.1494 37.5989 85.953 38.1318 85.392C38.8051 84.7187 38.8331 85.1956 39.4503 85.2517C39.5905 84.831 39.843 83.9333 39.6466 83.232C39.3942 82.7552 38.1318 83.2601 37.8233 83.8492C37.683 84.1016 37.683 84.326 37.4306 84.4382L37.1781 83.2881Z" fill="#25449B"/>
<path fill-rule="evenodd" clip-rule="evenodd" d="M116.648 37.845C116.563 38.2658 116.507 38.4061 116.451 38.8829C116.676 38.6305 116.535 38.7988 116.732 38.378C116.9 38.0133 116.816 38.2658 116.956 37.8731C117.04 37.5084 117.152 37.2279 117.265 36.9193L118.611 33.0483C118.836 32.375 118.779 32.3189 119.228 31.0286C119.649 29.9065 119.256 30.4956 119.593 30.0748C119.733 30.6919 119.958 32.347 120.126 33.2727C120.21 33.7495 120.294 34.4508 120.35 34.8716C120.434 35.4887 120.519 35.9095 120.434 36.3864C120.322 35.4326 120.294 35.0399 120.014 34.535C120.042 35.3485 120.21 36.1339 120.406 36.7791C120.406 36.7791 120.463 36.9193 120.463 36.9754C120.687 37.817 120.799 39.3878 120.883 40.4257C120.995 41.7161 121.669 45.7835 121.613 46.1763C121.332 44.409 120.995 42.193 120.799 40.4257C120.687 39.3878 120.575 38.2658 120.406 37.3401C120.238 36.4144 119.873 35.7973 119.845 34.6752C119.649 35.096 119.565 34.03 119.733 35.5168C119.733 35.5168 120.322 38.5183 120.547 40.5941L121.444 46.8214C120.995 45.4469 120.378 39.444 120.126 37.9011C119.93 36.7791 119.93 37.5365 119.537 35.2363L119.481 35.3204C119.397 36.1058 119.481 36.1619 119.621 36.8352C119.789 37.6206 119.789 37.5645 119.901 38.4902L119.789 38.2938C119.705 38.0694 119.761 38.2377 119.705 38.0133C119.705 37.9853 119.677 37.845 119.649 37.817L119.621 37.7609C119.621 37.7328 119.593 37.6487 119.565 37.6206C119.481 37.3962 119.425 37.1998 119.369 37.0315L119.2 36.4425C119.088 37.4523 119.032 37.0876 118.864 37.7328L117.742 43.5394C117.545 44.7176 117.882 43.4833 117.657 44.8298C117.657 44.8579 117.629 44.914 117.629 44.942C117.489 45.7274 117.124 47.4386 117.237 47.9435C117.377 47.4386 118.162 43.0345 118.415 42.221C118.611 41.632 118.443 41.8844 118.723 40.9868L118.836 40.4257C118.864 40.1172 118.836 40.1452 118.892 39.7806C118.92 39.8367 118.948 39.8367 118.948 39.9489C118.976 40.3135 119.032 39.6123 119.088 41.0429L119.172 42.3052L119.228 41.8844C119.2 43.2028 119.817 47.5227 120.042 49.0936C120.406 48.4204 119.901 46.0921 119.733 44.6895C119.228 40.6502 119.593 41.2953 119.481 40.1452C119.481 41.9966 119.621 43.0626 119.789 44.5493C119.958 45.8396 120.266 47.4386 120.378 48.5887C120.631 47.9716 120.434 47.2422 120.322 46.4287L120.07 44.3529C120.238 44.8579 120.126 44.5212 120.294 44.8018C120.21 43.3711 120.07 43.3431 120.07 43.3431L120.238 43.287C120.238 44.409 120.378 44.8298 120.519 45.7836L120.827 48.0557C121.332 47.691 120.967 47.9996 121.276 47.4105C121.276 47.4386 121.304 47.4666 121.304 47.4947C121.304 47.5508 121.332 47.6349 121.36 47.663C121.444 47.9435 121.192 47.5508 121.472 47.9154C121.669 47.8593 121.613 47.8032 121.921 47.3544L122.033 47.2142C122.033 47.2142 122.033 47.2422 122.033 47.2703C122.033 47.4105 121.893 47.4666 121.949 48.2801C122.426 47.0459 122.37 48.3643 122.426 47.1581C122.426 46.9337 122.454 46.5129 122.51 46.1763L122.314 45.8677C122.594 45.9519 122.342 45.8958 122.454 45.7555L122.37 45.1384L121.669 41.0709C121.613 41.1831 121.332 41.2673 121.557 42.4174L121.865 44.6615C121.893 44.9701 121.949 45.4189 121.977 45.6152C122.033 45.3347 121.472 42.221 121.416 41.8564C121.22 40.7624 120.995 38.8549 120.883 37.6487C120.715 36.1619 120.715 35.0118 120.463 33.5532C120.322 32.8238 120.238 32.3189 120.098 31.5896C119.901 30.72 119.789 30.4395 119.845 29.3455C119.284 30.0187 118.415 33.4129 117.91 34.7313L117.433 36.1339C117.321 36.4425 117.433 36.1339 117.349 36.4144C117.237 36.751 117.265 36.6669 117.152 36.9474C116.76 37.5365 116.9 37.4523 116.648 37.845Z" fill="#90AC8E"/>
<path fill-rule="evenodd" clip-rule="evenodd" d="M99.6484 39.472C99.7326 40.0611 99.6204 39.9208 99.7887 39.472L100.434 36.1339C100.602 35.2924 100.49 35.124 100.602 34.535C100.63 34.3667 101.275 32.908 101.416 32.5433C101.472 32.347 101.556 32.1506 101.612 31.9823C101.78 31.5896 101.696 31.8701 101.836 31.5335C102.033 31.0847 101.921 31.0286 102.229 30.5517C102.173 31.7298 101.977 31.6737 101.836 32.0103C101.64 32.5153 101.64 33.2166 101.556 33.8056C101.416 34.6752 101.023 36.5266 100.967 37.4523C101.051 36.8071 101.135 36.6949 101.332 36.5266C101.135 38.4341 100.378 41.3234 100.518 41.8564C100.546 41.1551 100.995 39.6123 101.107 38.8549C101.36 37.2559 102.369 29.9907 102.818 29.2894C102.734 30.3834 102.117 34.03 101.921 35.2643C101.668 36.8352 101.191 39.8367 101.107 41.4075C101.303 40.6782 102.762 31.4774 102.846 30.4114C102.93 30.6358 103.015 30.2151 102.93 31.281L102.594 33.4971C102.341 35.2924 101.416 41.3514 101.388 42.5015C101.612 41.9686 102.426 35.9095 102.622 34.6472C102.93 32.4872 103.211 30.8883 103.435 28.6161C103.52 27.7185 103.491 27.1294 103.912 26.8209C103.688 29.8504 101.977 39.0512 101.921 42.193C102.145 41.4356 102.426 39.0232 102.566 37.9572L104.109 27.1855C104.221 25.9793 104.165 25.9793 104.529 25.3341L102.902 37.7328C102.818 38.4621 102.734 39.1915 102.65 39.9208L102.51 42.1369L104.67 26.2879C104.81 25.25 104.698 24.6609 105.062 24.184C105.034 25.4744 104.193 31.3091 103.968 33.0763C103.8 34.5069 103.632 36.0778 103.407 37.5645C103.295 38.378 102.874 41.3514 102.874 41.9966C103.211 41.0148 104.193 33.469 104.305 32.0384C104.333 31.3091 104.978 26.5684 105.147 25.0256C105.343 23.2583 105.118 23.5669 105.595 22.8376C105.764 23.4827 105.623 24.0718 105.511 24.8853C105.455 25.25 105.399 25.6988 105.371 25.8671V26.7648C105.483 25.6988 105.595 24.9414 105.708 23.9596C105.932 22.1363 105.792 21.7155 106.241 21.407C106.409 21.9119 105.988 24.156 105.904 24.6329C105.736 25.4744 105.455 26.7087 105.343 27.5221C105.175 28.9528 104.473 32.7677 104.698 34.1703C104.922 33.5812 105.147 31.1408 105.231 30.3553L106.212 23.4547C106.269 22.9778 106.409 22.1924 106.465 21.7155C106.605 20.2568 106.381 20.902 106.886 20.1446C106.802 19.5275 106.886 19.7239 106.577 19.6678L99.957 35.2362C99.6204 36.2741 98.9472 38.6305 98.835 39.8647L99.1716 38.6866C99.2557 38.2097 99.3118 37.9572 99.4521 37.4804C99.4801 37.6206 99.4801 37.4243 99.4801 37.817C99.4801 37.845 99.424 38.2938 99.424 38.2938C99.3118 39.0512 99.0313 40.1172 98.9191 41.127C99.6204 39.2756 99.8168 35.8253 100.35 35.1801L99.6484 39.472Z" fill="#356933"/>
<path fill-rule="evenodd" clip-rule="evenodd" d="M33.8401 83.3162C33.7279 84.8029 33.8121 88.3654 33.8121 90.0766C33.8401 93.6952 33.5877 94.3123 34.1767 94.3965C34.4292 94.4245 34.7097 94.5367 34.9622 94.3684C35.0463 93.4708 35.0183 83.7931 34.9061 83.232L33.8401 83.3162Z" fill="#25449B"/>
<path fill-rule="evenodd" clip-rule="evenodd" d="M108.092 94.0598C108.148 93.3025 108.148 85.8128 108.148 83.9333C108.148 83.1479 108.176 83.0076 107.811 82.9235C106.858 82.6991 106.97 83.1479 106.97 84.298C106.97 85.8689 106.914 93.7232 107.054 94.0037C107.306 94.172 107.811 94.2001 108.092 94.0598Z" fill="#25449B"/>
<path fill-rule="evenodd" clip-rule="evenodd" d="M108.092 81.016C108.148 80.8757 108.148 79.6134 108.148 79.3049C108.148 79.1646 108.176 79.1366 107.811 79.1366C106.858 79.1085 106.97 79.1646 106.97 79.361C106.97 79.6134 106.914 80.9599 107.054 81.016C107.306 81.044 107.811 81.044 108.092 81.016Z" fill="#25449B"/>
<path fill-rule="evenodd" clip-rule="evenodd" d="M46.9963 94.3965C47.1926 93.6671 47.1085 85.925 47.0804 84.1577C47.0804 83.2881 47.1085 83.1759 46.7157 83.204C46.6035 83.204 46.4633 83.232 46.3511 83.232L45.9864 83.3723C45.8462 84.2138 45.9303 87.6642 45.9303 88.8423C45.9303 94.5648 45.6778 94.677 46.9963 94.3965Z" fill="#25449B"/>
<path fill-rule="evenodd" clip-rule="evenodd" d="M106.886 20.2008C106.381 20.9581 106.605 20.313 106.465 21.7716C106.409 22.2485 106.297 23.0339 106.213 23.5108L105.231 30.4114C105.119 31.2249 104.922 33.6373 104.698 34.2264C104.473 32.7958 105.175 28.9808 105.343 27.5782C105.455 26.7928 105.736 25.5305 105.904 24.689C106.016 24.2121 106.409 21.968 106.241 21.4631C105.792 21.7716 105.932 22.1924 105.708 24.0157C105.595 24.9975 105.483 25.7549 105.371 26.8209V25.9232C105.399 25.7549 105.455 25.3061 105.511 24.9414C105.623 24.1279 105.764 23.5389 105.595 22.8937C105.147 23.623 105.343 23.3144 105.147 25.0817C104.978 26.6526 104.333 31.3652 104.305 32.0945C104.445 32.6555 104.053 35.8534 103.968 36.6388C103.884 37.4804 103.772 38.1536 103.688 38.9671L103.632 41.4356C103.772 40.033 104.642 34.8155 104.501 34.4228C104.586 35.8253 104.417 36.9193 104.277 38.2377C104.221 38.7427 104.137 39.4159 104.053 40.0611C104.025 40.2855 103.968 40.6782 103.94 40.9587C103.884 41.3234 103.856 41.6881 103.996 41.9966C104.417 40.8465 104.838 35.7412 105.119 35.1241C105.062 37.2279 104.614 39.1354 104.529 41.1551C104.838 40.6221 104.894 39.8367 105.034 38.7988C105.147 37.9572 105.231 37.2279 105.343 36.3864C105.511 35.0399 105.764 33.1044 105.988 31.814L105.82 33.8056C106.072 34.3106 105.988 34.7313 105.82 35.8534C106.044 34.6472 106.156 32.7116 106.297 31.4213C106.577 29.0369 106.521 27.1575 106.689 26.0354C106.802 25.1658 106.717 25.8391 106.914 25.1658L107.531 21.0703C107.643 20.2569 107.783 19.7239 107.811 18.7982C107.447 18.9104 107.531 18.7421 107.363 19.3031L106.886 23.4547C106.83 24.184 106.802 24.4926 106.689 25.1378L106.044 29.9907C105.904 31.1969 105.988 31.5335 105.82 31.814C105.68 31.9823 105.259 33.1044 105.427 31.4493C105.539 30.3553 106.016 27.6344 106.185 26.2037C106.297 25.1939 106.577 24.4084 106.717 23.4828C106.83 22.6973 106.998 20.9862 107.138 20.4813C106.942 20.1166 107.166 19.9483 106.886 20.2008Z" fill="#8DAD71"/>
<path fill-rule="evenodd" clip-rule="evenodd" d="M122.763 8.41919C123.52 7.99842 123.212 8.7558 123.548 8.92411C124.053 9.20463 124.109 7.83011 124.334 9.31683C124.053 9.76565 124.053 9.54124 123.745 9.26073V9.96201C123.773 9.96201 123.801 9.90591 123.829 9.96201C123.857 10.0181 123.885 9.96201 123.913 9.96201L124.306 10.1864C124.334 10.2145 124.39 10.3828 124.418 10.4389C124.278 11.3365 124.193 10.7474 123.857 11.2804L123.745 11.5048C124.586 11.056 124.53 11.9817 124.558 12.0659C124.558 12.0378 124.586 11.9537 124.586 11.9817L125.035 11.2243C125.035 11.1963 125.063 11.1963 125.091 11.1682C125.119 11.1402 125.175 11.0841 125.175 11.056L125.652 10.1303C125.652 10.1023 125.68 10.0742 125.708 10.0462C125.708 10.0181 125.736 9.99006 125.736 9.96201C126.129 9.17657 125.82 9.90591 126.157 9.45709L126.325 9.14852L126.101 8.89606C126.045 8.86801 125.877 8.7558 125.849 8.72775L125.456 8.33503C125.82 8.36309 125.708 8.6436 125.933 8.67165L126.213 8.50334C126.185 8.25088 126.213 7.77401 125.849 7.57765C125.512 7.40934 125.512 7.63375 125.259 7.68985C125.203 7.38129 125.175 7.07272 124.951 6.93247C124.334 6.59585 124.698 7.21298 124.502 7.29714C124.53 7.32519 124.558 7.52155 124.558 7.5496L124.502 7.85816C123.969 7.57765 124.53 7.88621 124.25 7.49349C124.165 7.35324 123.997 7.18493 123.829 7.32519C123.52 7.5496 123.857 6.82026 123.689 7.5496C123.632 6.82026 123.773 7.43739 123.38 6.90442L123.324 7.40934C123.436 8.39114 123.857 7.35324 124.362 8.05452C124.081 8.83996 124.446 8.13868 124.137 8.36309C123.717 8.6997 123.352 7.99842 122.959 7.85816C122.763 7.77401 122.763 7.85816 122.595 7.80206C122.258 7.71791 122.538 7.83011 122.286 7.5496C121.809 6.98857 122.118 8.08257 121.416 6.90442C121.276 6.68001 121.248 6.73611 121.192 6.25924C121.725 5.58601 121.585 6.31534 121.725 6.93247C121.865 6.93247 121.865 6.98857 122.005 6.90442C122.23 6.76416 121.725 7.15688 122.202 6.73611L122.37 6.59585C122.623 7.38129 122.567 7.5496 123.099 7.38129L123.071 7.15688C123.015 6.53975 123.043 7.32519 123.043 7.01662L123.128 6.70806C123.128 6.65196 123.156 6.65196 123.156 6.59585C122.791 6.42755 122.959 6.84831 122.931 5.67016L123.492 6.25924C123.352 4.77252 123.099 5.50185 122.679 5.27744C122.23 5.05303 121.977 4.74447 121.501 4.60421L120.855 4.26759C120.94 5.36159 121.557 5.22134 121.921 5.69821C122.174 5.55795 121.977 5.4738 122.174 5.4177C122.763 5.19329 122.342 5.30549 122.51 5.61406C122.342 6.37144 122.707 5.89457 122.202 6.14703C121.977 6.25924 120.631 5.22134 119.846 5.05303L119.789 5.55795C119.789 5.5299 119.789 5.61406 119.789 5.64211C120.126 5.64211 120.098 5.92262 120.379 6.06288C121.08 6.42755 120.463 6.20313 120.687 6.00678L121.024 5.61406C120.996 6.76416 121.108 6.42754 120.743 6.65196C120.547 6.79221 120.238 6.39949 120.014 6.25924C119.789 6.14703 118.836 5.81042 118.723 5.50185C118.695 5.5299 118.667 5.55795 118.667 5.58601C118.667 5.61406 118.639 5.64211 118.611 5.67016C118.611 5.69821 118.583 5.72626 118.555 5.75431L118.275 6.23119C118.387 6.84831 118.443 6.73611 118.752 6.79221C119.481 6.90442 118.752 7.38129 119.313 7.43739C119.677 7.46544 119.453 7.35324 119.509 7.24103L119.565 7.01662C119.565 6.98857 119.565 6.93247 119.593 6.87637C119.761 6.39949 119.453 6.65196 119.93 6.39949L119.902 7.5496C120.519 7.38129 119.733 7.12883 120.491 6.73611C120.463 8.13868 120.575 7.35324 120.21 7.80206L120.126 7.91426C120.098 7.91426 120.098 7.94232 120.07 7.97037C120.042 7.97037 120.042 7.99842 120.014 7.99842L119.789 8.11062C119.677 8.22283 119.705 8.25088 119.593 8.53139C119.705 9.48514 119.958 9.17657 120.182 9.34488C120.126 7.83011 120.238 8.47529 120.266 7.5496C120.379 7.63375 120.463 7.63375 120.463 7.6618C120.491 7.6618 120.491 7.68985 120.519 7.68985C120.659 7.80206 120.631 7.6618 120.715 7.99842C120.771 8.25088 120.743 8.67165 120.799 9.09242C120.827 9.23268 120.883 9.56929 120.94 9.62539C121.164 9.90591 121.192 8.89606 121.36 8.55945C121.473 8.81191 121.557 7.99842 121.501 9.34488C121.473 10.1584 121.557 9.54124 121.36 9.82175L121.949 10.0181C121.921 9.20462 121.865 9.51319 122.118 8.86801C121.893 8.98021 121.697 8.86801 121.529 8.50334C121.557 8.47529 121.585 8.44724 121.585 8.41919C121.865 8.08257 121.809 7.94232 122.258 7.85816L122.398 8.39114C122.595 8.78385 122.707 8.6997 122.763 8.41919Z" fill="#4C7436"/>
<path fill-rule="evenodd" clip-rule="evenodd" d="M123.211 41.9686C123.324 41.7161 123.183 41.9125 123.408 41.8283L123.744 43.3431V42.4174C123.716 41.9966 123.688 41.5758 123.632 41.099C123.492 38.7427 122.959 35.7412 122.931 33.5812C122.875 34.1984 122.931 33.6934 123.043 33.9178C122.987 32.9921 122.763 31.4493 122.594 30.6919L121.725 24.184C121.472 22.2485 121.669 21.2386 121.136 20.9581C121.08 21.3228 121.051 21.5472 121.08 22.0802L121.977 28.2515C121.669 27.4941 121.725 27.6343 121.472 25.5024L121.023 22.3887C120.827 22.7254 120.799 22.7534 120.799 23.3705L121.416 27.2136C121.416 27.2416 121.528 27.6343 121.528 27.6343L121.584 27.8307C121.584 27.8588 121.612 27.8868 121.612 27.9149C121.865 28.532 121.753 27.8027 122.033 29.9065L122.735 34.8716C122.903 35.6009 122.678 35.3204 122.987 37.2559C123.071 37.7889 123.015 37.1998 123.099 37.8731C122.706 38.378 123.043 38.3499 122.847 38.2097C122.23 34.3667 122.426 34.8716 122.145 32.7958C122.033 32.0665 122.005 31.5054 121.893 30.8883C121.837 30.5236 121.781 30.4114 121.753 30.0748C121.444 27.8868 121.276 27.6904 120.911 24.7731C120.771 23.6511 120.939 24.156 120.575 23.9316C120.378 25.25 120.967 26.2598 121.108 28.4759C121.192 29.8223 121.556 31.7579 121.753 33.1324C122.117 35.7131 122.398 36.723 122.791 39.8086L123.127 41.66C123.183 41.8564 123.155 41.8003 123.211 41.9686Z" fill="#8EC975"/>
<path fill-rule="evenodd" clip-rule="evenodd" d="M123.632 1.85519C123.632 1.85519 123.66 1.37831 124.081 1.79908C124.39 2.10765 124.782 2.78088 125.259 3.1736C126.437 4.18345 125.54 3.67852 127.027 4.43591L127.167 5.13719C126.97 4.91278 126.886 4.74447 126.718 4.60421C126.269 4.2115 126.213 4.82863 126.157 4.96888C126.634 5.67016 127.307 5.97873 127.616 6.5117C127.924 7.01663 127.784 6.96053 128.317 6.87637C128.261 5.95068 128.289 5.97873 127.98 5.58601C127.728 5.24939 127.728 5.13719 127.419 5.02498C127.896 4.57616 128.149 6.5117 128.99 6.11899C128.906 5.2494 129.186 5.72627 128.317 4.77252C127.952 4.37981 127.756 4.35175 127.447 4.09929C127.616 3.81878 127.447 3.90293 127.672 3.93098L128.429 4.74447C128.962 5.38965 128.766 5.83847 129.411 5.58601C129.355 4.66032 129.439 4.99693 129.102 4.63227C128.71 4.2115 128.205 3.65047 127.812 3.42606C127.531 3.2858 126.858 2.2479 126.157 1.68688C125.961 2.38816 125.147 0.985596 125.063 0.929493C124.614 0.845339 123.829 1.0417 123.492 1.54662C123.52 2.10765 123.38 1.71493 123.632 1.85519Z" fill="#76AD6A"/>
<path fill-rule="evenodd" clip-rule="evenodd" d="M116.928 37.8731H116.984C117.209 37.9292 117.181 38.1255 117.349 37.4523C117.433 37.1437 117.405 37.1718 117.489 36.9193L119.032 31.8701C119.228 31.2249 119.256 31.0566 119.453 30.8322C119.621 31.3371 119.649 30.1309 119.537 31.5896C119.481 32.6555 119.565 31.3932 119.004 33.2446L117.265 39.5842C117.265 39.5562 117.293 39.5001 117.293 39.472L117.601 38.2097C117.686 37.9011 117.77 37.5926 117.854 37.284L117.994 36.751C118.05 36.5547 118.106 36.4144 118.134 36.2461L118.695 34.3947C119.032 33.3007 119.032 33.0202 119.453 32.7677C119.453 33.3007 119.481 32.9921 119.425 33.3849L118.752 35.6851C117.826 39.0232 117.938 38.406 117.237 41.8283L117.097 43.1748C117.097 43.1467 117.125 43.0906 117.125 43.0626L119.2 34.535C119.313 34.3386 119.144 34.4508 119.425 34.2264L119.397 35.2362L119.453 35.1521C119.846 37.4523 119.846 36.723 120.042 37.817C120.322 39.3317 120.912 45.3628 121.36 46.7373L120.463 40.5099C120.266 38.4341 119.649 35.4607 119.649 35.4326C119.481 33.9459 119.537 35.0399 119.761 34.5911C119.818 35.7131 120.182 36.3302 120.322 37.2559C120.491 38.1816 120.603 39.3037 120.715 40.3416C120.912 42.0808 121.276 44.2968 121.529 46.0921C121.585 45.6994 120.883 41.6319 120.799 40.3416C120.715 39.3317 120.603 37.7328 120.379 36.8913C120.379 36.8352 120.322 36.6949 120.322 36.6949C120.126 36.0497 119.958 35.2643 119.93 34.4508C120.21 34.9557 120.238 35.3485 120.35 36.3022C120.407 35.8253 120.322 35.3765 120.266 34.7874C120.21 34.3667 120.126 33.6934 120.042 33.1885C119.874 32.2628 119.649 30.6078 119.509 29.9907C119.172 30.4114 119.565 29.8223 119.144 30.9444C118.667 32.2348 118.752 32.3189 118.527 32.9641L117.181 36.8352C117.125 37.2279 117.012 37.5084 116.928 37.8731Z" fill="#214F26"/>
<path fill-rule="evenodd" clip-rule="evenodd" d="M119.312 21.7155C119.396 21.0984 119.34 21.0142 119.34 20.4532C119.621 20.1446 119.705 19.78 119.929 19.4434C120.35 18.9104 120.35 19.2751 120.378 17.8164C120.014 18.0969 120.21 17.7042 119.817 18.8823C119.649 19.3592 119.565 19.6117 119.284 19.8922C119.34 19.1348 119.425 18.7421 119.537 18.2372C119.2 18.4335 119.368 18.6579 119.172 18.4896L119.34 17.9847C119.509 17.9566 119.425 18.0127 119.509 18.0969C119.537 18.0969 119.537 18.1249 119.565 18.153C119.761 18.2933 119.761 18.2652 119.986 17.9566C120.434 17.3115 120.462 17.9286 120.434 16.4419C120.098 16.6943 120.378 16.3577 120.154 16.8907C119.677 18.0127 120.322 16.7224 119.986 17.3115C119.649 17.9286 119.593 17.7603 119.509 17.6761C119.425 17.5078 119.396 18.3774 119.396 16.9748C119.396 17.4798 119.34 17.7603 119.116 18.0969C118.751 18.6018 118.779 18.0969 118.611 18.9384C119.004 18.4896 118.639 18.5738 119.144 18.3494C119.116 19.6397 119.032 19.6958 118.835 20.2007C118.527 20.9581 118.948 19.9202 118.723 20.7898C118.639 21.1264 118.611 21.1825 118.274 21.2667L118.499 19.9202C118.555 19.4153 118.555 19.5556 118.443 19.1067L118.639 18.0127C118.639 17.9286 118.667 17.8444 118.667 17.7603L118.583 17.2273C118.134 18.0408 118.639 18.6579 118.078 18.8823C118.218 18.2091 118.106 17.9286 118.19 17.4798L118.387 16.9187C118.246 16.7785 118.19 17.0029 118.331 15.7406L118.639 15.404C119.06 14.8149 119.004 14.7588 119.032 14.2539L118.807 14.2258C118.695 15.6845 118.667 14.2539 117.91 16.5821C117.882 16.6382 117.657 17.2554 117.657 17.5359C117.685 17.9847 117.601 17.5639 117.713 17.7042C117.77 17.3395 117.741 17.2273 117.91 17.0871L118.05 17.059C117.966 18.6579 117.405 18.686 117.545 19.5275C117.545 19.4995 117.573 19.4153 117.573 19.4434C117.573 19.4714 117.601 19.3592 117.601 19.3592C117.77 18.8543 117.741 18.7982 117.91 18.6579C117.966 19.3592 117.798 18.9104 117.657 20.6496C117.573 21.7436 117.573 20.8459 117.208 22.1082C117.377 22.2204 117.349 22.1082 117.517 21.5472C117.517 21.5192 117.545 21.4631 117.573 21.435C117.573 21.407 117.601 21.3508 117.629 21.3228C117.798 22.1363 117.321 23.09 117.265 23.9316C117.461 23.5669 117.405 23.7633 117.517 23.623L117.854 23.2864C117.826 22.9778 117.741 22.4448 117.826 21.968C117.91 21.4911 117.826 21.6875 117.994 21.4911L118.134 23.1181C118.387 22.501 118.218 22.1924 118.387 21.5472C118.583 20.902 118.751 21.435 118.948 20.6776C119.116 21.1545 119.116 20.6776 119.06 21.4911C119.256 21.7997 119.06 21.4631 119.312 21.7155Z" fill="#95CA8A"/>
<path fill-rule="evenodd" clip-rule="evenodd" d="M118.359 47.0459L118.415 46.7653C118.387 47.1861 118.527 46.569 118.331 47.5227C118.106 48.5326 117.966 50.0193 117.994 51.2255L118.19 50.8328L118.359 49.4583C118.555 49.9632 118.331 49.8229 118.583 49.8229L118.639 49.0656C118.639 48.9814 118.779 49.4302 118.639 48.4765C118.583 49.0936 118.695 48.8692 118.359 49.0375C118.527 48.4204 118.639 47.8593 118.751 47.1861C118.667 48.6448 118.723 48.0557 118.892 49.1217C119.172 48.4484 118.948 49.2339 119.032 48.2801L119.06 48.0277C119.172 48.1679 119.144 48.1399 119.2 48.2521C119.2 48.2801 119.312 48.5045 119.341 48.5887L119.369 48.0838C119.369 47.8313 119.341 47.691 119.341 47.6069C119.284 47.0459 119.144 46.8214 119.284 46.2885C119.312 46.9898 119.481 47.7191 119.621 48.5606V47.9154C119.565 46.3165 119.004 43.7639 119.088 42.193L118.864 42.8382C118.779 42.5015 118.836 42.5296 118.667 42.6418C118.667 42.6138 118.779 42.1088 118.779 42.1088C118.836 41.632 118.779 41.66 118.751 41.5759C118.667 41.8844 118.639 42.1088 118.583 42.3613C118.471 42.754 118.471 42.6418 118.331 43.1187C118.134 43.7639 118.078 44.0724 117.966 44.7737C117.798 45.8677 117.461 47.4386 117.349 48.4484L117.657 47.2142C117.966 45.9519 118.05 44.8579 118.387 43.5675C118.583 42.754 118.387 43.2309 118.611 42.8101L118.695 43.1187C118.751 43.4833 118.695 43.0626 118.751 43.5955L118.779 44.1846C118.836 44.6895 118.836 44.1846 118.695 45.0542L118.611 45.6994C118.443 46.4568 118.331 46.1202 118.359 47.0459Z" fill="#90AC8E"/>
<path fill-rule="evenodd" clip-rule="evenodd" d="M33.9242 81.8856C34.1486 82.1661 34.7938 82.2222 35.0743 82.11C35.1584 81.577 35.2426 80.5391 35.0743 80.0622C35.0462 80.0622 33.6156 78.5475 33.9242 81.8856Z" fill="#25449B"/>
<path fill-rule="evenodd" clip-rule="evenodd" d="M122.763 8.41919C122.791 8.55945 122.763 8.83996 122.847 9.00827C123.773 9.12047 123.604 9.06437 123.688 9.51319C123.857 10.523 123.66 8.89606 123.688 9.82176C123.688 9.87786 123.688 10.0181 123.688 9.99006C123.688 9.96201 123.688 10.1023 123.66 10.1584C123.632 10.1864 123.604 10.1864 123.576 10.1864C122.987 10.1864 123.436 10.1023 123.212 9.82176C123.155 9.7376 123.324 9.56929 123.015 9.7376C122.651 9.93396 122.987 9.56929 122.847 9.99006C122.959 10.3547 123.071 10.4108 123.296 10.8036C122.791 11.1121 122.51 9.84981 122.398 10.6352C122.931 10.6352 122.735 10.4108 122.735 11.1963C122.735 12.122 122.735 11.5329 122.426 11.8134L122.258 11.9256C122.286 11.9537 122.314 11.9537 122.342 11.9537L122.622 12.0378C122.903 12.0659 122.707 11.9817 122.875 11.8976L123.296 11.9256C123.296 11.9256 123.296 12.4025 123.155 12.0939C123.492 12.0939 123.52 12.3464 123.632 12.4866L123.829 12.7391C123.688 13.3843 123.885 12.9355 123.604 13.3282C123.688 13.3001 123.632 13.2721 123.745 13.3843C123.829 12.6269 123.716 13.3282 124.053 12.9074C124.334 12.5708 124.109 12.3464 124.362 12.5427L123.969 12.4305C123.829 12.3464 123.801 12.3183 123.745 12.2342C123.969 11.8695 123.857 12.122 124.053 12.1781C124.249 12.2342 124.278 12.15 124.558 12.0659C124.53 11.9817 124.586 11.056 123.745 11.5048L123.857 11.2804C124.193 10.7474 124.278 11.3085 124.418 10.4389C124.39 10.4108 124.334 10.2145 124.306 10.1864L123.913 9.96201C123.885 9.96201 123.857 10.0181 123.829 9.96201C123.801 9.90591 123.773 9.96201 123.745 9.96201V9.26073C124.053 9.54124 124.053 9.7376 124.334 9.31683C124.137 7.83011 124.053 9.17658 123.548 8.92411C123.212 8.72776 123.52 7.99842 122.763 8.41919Z" fill="#8DAD71"/>
<path fill-rule="evenodd" clip-rule="evenodd" d="M109.523 83.8772C109.747 84.1016 110.308 84.1016 110.56 83.9053C110.617 83.5687 110.673 82.8674 110.645 82.3905C110.617 81.7453 110.448 81.7734 110.14 81.7173C109.831 81.6612 109.579 81.5209 109.495 82.1381C109.382 82.671 109.41 83.5126 109.523 83.8772Z" fill="#25449B"/>
<path fill-rule="evenodd" clip-rule="evenodd" d="M47.0524 81.8856C47.1646 81.3245 47.1366 80.455 47.0524 79.7817C46.3792 79.389 45.9584 79.4732 45.9304 80.7355C45.9304 81.4087 45.9023 81.8014 46.2109 81.9136L47.0524 81.8856Z" fill="#25449B"/>
<path fill-rule="evenodd" clip-rule="evenodd" d="M119.06 14.1978C119.032 14.7027 119.088 14.7588 118.667 15.3479L118.359 15.6845C118.218 16.9468 118.275 16.7224 118.415 16.8626L118.218 17.4237C118.134 17.9005 118.218 18.1811 118.106 18.8262C118.667 18.6018 118.19 17.9847 118.611 17.1712L118.695 17.7042C118.695 17.7883 118.667 17.8725 118.667 17.9566C119.06 17.2273 118.751 17.4517 118.836 16.8626C118.948 16.1614 119.284 16.8065 119.481 15.3759C119.172 15.5162 119.032 15.6284 118.92 16.0492C118.723 16.8907 118.976 16.7785 118.527 17.0029C118.527 16.9468 118.499 16.8907 118.499 16.8626C118.443 16.3577 118.471 16.1053 118.667 15.6845C118.667 15.6564 118.695 15.6284 118.695 15.6003C118.695 15.5723 118.723 15.5442 118.751 15.5162C118.779 15.4881 118.807 15.404 118.836 15.3759C119.509 14.31 119.677 14.7868 119.789 13.9734L120.21 14.0575C120.182 14.0856 120.154 14.0575 120.154 14.0856C120.154 14.1136 120.098 14.1136 120.098 14.1417C120.098 14.1697 120.07 14.1978 120.042 14.2258C119.873 14.5344 120.014 13.9453 119.958 14.6466C120.042 14.6466 120.21 14.6466 120.322 14.338C120.434 14.0295 120.378 14.1978 120.378 13.8331C120.042 13.5245 119.312 13.7209 119.06 14.1978Z" fill="#1D6834"/>
<path d="M54.2159 33.3636C54.2159 34.1473 54.0691 34.8184 53.7756 35.3771C53.4844 35.9335 53.0866 36.3596 52.5824 36.6555C52.0805 36.9515 51.5111 37.0994 50.8743 37.0994C50.2375 37.0994 49.6669 36.9515 49.1626 36.6555C48.6607 36.3572 48.263 35.9299 47.9695 35.3736C47.6783 34.8149 47.5327 34.1449 47.5327 33.3636C47.5327 32.58 47.6783 31.91 47.9695 31.3537C48.263 30.795 48.6607 30.3677 49.1626 30.0717C49.6669 29.7758 50.2375 29.6278 50.8743 29.6278C51.5111 29.6278 52.0805 29.7758 52.5824 30.0717C53.0866 30.3677 53.4844 30.795 53.7756 31.3537C54.0691 31.91 54.2159 32.58 54.2159 33.3636ZM52.8913 33.3636C52.8913 32.812 52.8049 32.3468 52.6321 31.968C52.4616 31.5869 52.2249 31.2992 51.9219 31.1051C51.6188 30.9086 51.2696 30.8104 50.8743 30.8104C50.4789 30.8104 50.1297 30.9086 49.8267 31.1051C49.5237 31.2992 49.2857 31.5869 49.1129 31.968C48.9425 32.3468 48.8572 32.812 48.8572 33.3636C48.8572 33.9152 48.9425 34.3816 49.1129 34.7628C49.2857 35.1416 49.5237 35.4292 49.8267 35.6257C50.1297 35.8198 50.4789 35.9169 50.8743 35.9169C51.2696 35.9169 51.6188 35.8198 51.9219 35.6257C52.2249 35.4292 52.4616 35.1416 52.6321 34.7628C52.8049 34.3816 52.8913 33.9152 52.8913 33.3636ZM55.4047 37V31.5455H56.6511V32.4545H56.7079C56.8074 32.1397 56.9778 31.897 57.2193 31.7266C57.4631 31.5537 57.7413 31.4673 58.0538 31.4673C58.1248 31.4673 58.2041 31.4709 58.2917 31.478C58.3817 31.4827 58.4563 31.491 58.5154 31.5028V32.6854C58.461 32.6664 58.3746 32.6499 58.2562 32.6357C58.1402 32.6191 58.0278 32.6108 57.9189 32.6108C57.6845 32.6108 57.4738 32.6617 57.2868 32.7635C57.1021 32.8629 56.9565 33.0014 56.85 33.179C56.7434 33.3565 56.6902 33.5613 56.6902 33.7933V37H55.4047ZM61.517 39.1591C61.0554 39.1591 60.6589 39.0964 60.3274 38.9709C59.996 38.8478 59.7296 38.6821 59.5284 38.4737C59.3272 38.2654 59.1875 38.0346 59.1094 37.7812L60.267 37.5007C60.3191 37.6072 60.3949 37.7126 60.4943 37.8168C60.5938 37.9233 60.7275 38.0109 60.8956 38.0795C61.0661 38.1506 61.2803 38.1861 61.5384 38.1861C61.9029 38.1861 62.2048 38.0973 62.4439 37.9197C62.683 37.7446 62.8026 37.4557 62.8026 37.0533V36.0199H62.7386C62.6723 36.1525 62.5753 36.2886 62.4474 36.4283C62.322 36.5679 62.1551 36.6851 61.9467 36.7798C61.7408 36.8745 61.4815 36.9219 61.169 36.9219C60.75 36.9219 60.37 36.8236 60.0291 36.6271C59.6906 36.4283 59.4207 36.1323 59.2195 35.7393C59.0206 35.344 58.9212 34.8492 58.9212 34.255C58.9212 33.656 59.0206 33.1506 59.2195 32.7386C59.4207 32.3243 59.6918 32.0107 60.0327 31.7976C60.3736 31.5821 60.7536 31.4744 61.1726 31.4744C61.4922 31.4744 61.755 31.5289 61.9609 31.6378C62.1693 31.7443 62.335 31.8733 62.4581 32.0249C62.5812 32.174 62.6747 32.3149 62.7386 32.4474H62.8097V31.5455H64.0774V37.0888C64.0774 37.5552 63.9661 37.9411 63.7436 38.2464C63.5211 38.5518 63.2169 38.7803 62.831 38.9318C62.4451 39.0833 62.0071 39.1591 61.517 39.1591ZM61.5277 35.9134C61.8 35.9134 62.032 35.8471 62.2237 35.7145C62.4155 35.5819 62.5611 35.3913 62.6605 35.1428C62.7599 34.8942 62.8097 34.5959 62.8097 34.2479C62.8097 33.9046 62.7599 33.6039 62.6605 33.3459C62.5634 33.0878 62.419 32.8878 62.2273 32.7457C62.0379 32.6013 61.8047 32.5291 61.5277 32.5291C61.2412 32.5291 61.0021 32.6037 60.8104 32.7528C60.6186 32.902 60.4742 33.1068 60.3771 33.3672C60.2801 33.6252 60.2315 33.9188 60.2315 34.2479C60.2315 34.5817 60.2801 34.8741 60.3771 35.125C60.4766 35.3736 60.6222 35.5677 60.8139 35.7074C61.008 35.8447 61.246 35.9134 61.5277 35.9134ZM66.9645 37.1101C66.6188 37.1101 66.3075 37.0485 66.0305 36.9254C65.7559 36.8 65.5381 36.6153 65.3771 36.3714C65.2185 36.1276 65.1392 35.8269 65.1392 35.4695C65.1392 35.1617 65.196 34.9072 65.3097 34.706C65.4233 34.5047 65.5784 34.3438 65.7749 34.223C65.9714 34.1023 66.1927 34.0111 66.4389 33.9496C66.6875 33.8857 66.9444 33.8395 67.2095 33.8111C67.5291 33.7779 67.7884 33.7483 67.9872 33.7223C68.1861 33.6939 68.3305 33.6513 68.4205 33.5945C68.5128 33.5353 68.5589 33.4441 68.5589 33.321V33.2997C68.5589 33.0322 68.4796 32.825 68.321 32.6783C68.1624 32.5315 67.9339 32.4581 67.6357 32.4581C67.3208 32.4581 67.071 32.5268 66.8864 32.6641C66.7041 32.8014 66.581 32.9635 66.517 33.1506L65.3168 32.9801C65.4115 32.6487 65.5677 32.3717 65.7855 32.1491C66.0033 31.9242 66.2696 31.7562 66.5845 31.6449C66.8994 31.5312 67.2474 31.4744 67.6286 31.4744C67.8913 31.4744 68.1529 31.5052 68.4134 31.5668C68.6738 31.6283 68.9117 31.7301 69.1271 31.8722C69.3426 32.0118 69.5154 32.2024 69.6456 32.4439C69.7782 32.6854 69.8445 32.9872 69.8445 33.3494V37H68.6087V36.2507H68.5661C68.4879 36.4022 68.3778 36.5443 68.2358 36.6768C68.0961 36.8071 67.9197 36.9124 67.7067 36.9929C67.496 37.071 67.2486 37.1101 66.9645 37.1101ZM67.2983 36.1655C67.5563 36.1655 67.7801 36.1146 67.9695 36.0128C68.1589 35.9086 68.3045 35.7713 68.4062 35.6009C68.5104 35.4304 68.5625 35.2446 68.5625 35.0433V34.4006C68.5223 34.4337 68.4536 34.4645 68.3565 34.4929C68.2618 34.5213 68.1553 34.5462 68.0369 34.5675C67.9186 34.5888 67.8014 34.6077 67.6854 34.6243C67.5694 34.6409 67.4688 34.6551 67.3835 34.6669C67.1918 34.6929 67.0201 34.7356 66.8686 34.7947C66.7171 34.8539 66.5975 34.9368 66.5099 35.0433C66.4223 35.1475 66.3786 35.2824 66.3786 35.4482C66.3786 35.6849 66.465 35.8636 66.6378 35.9844C66.8106 36.1051 67.0308 36.1655 67.2983 36.1655ZM72.4226 33.804V37H71.1371V31.5455H72.3658V32.4723H72.4297C72.5552 32.1669 72.7552 31.9242 73.0298 31.7443C73.3068 31.5644 73.6489 31.4744 74.0561 31.4744C74.4325 31.4744 74.7604 31.5549 75.0398 31.7159C75.3215 31.8769 75.5393 32.1101 75.6932 32.4155C75.8494 32.7209 75.9264 33.0914 75.924 33.527V37H74.6385V33.7259C74.6385 33.3613 74.5438 33.076 74.3544 32.87C74.1674 32.6641 73.9081 32.5611 73.5767 32.5611C73.3518 32.5611 73.1518 32.6108 72.9766 32.7102C72.8037 32.8073 72.6676 32.9482 72.5682 33.1328C72.4711 33.3175 72.4226 33.5412 72.4226 33.804ZM77.2308 37V31.5455H78.5163V37H77.2308ZM77.8771 30.7713C77.6735 30.7713 77.4983 30.7038 77.3516 30.5689C77.2048 30.4316 77.1314 30.267 77.1314 30.0753C77.1314 29.8812 77.2048 29.7166 77.3516 29.5817C77.4983 29.4444 77.6735 29.3757 77.8771 29.3757C78.0831 29.3757 78.2583 29.4444 78.4027 29.5817C78.5495 29.7166 78.6229 29.8812 78.6229 30.0753C78.6229 30.267 78.5495 30.4316 78.4027 30.5689C78.2583 30.7038 78.0831 30.7713 77.8771 30.7713ZM82.2175 37.1065C81.673 37.1065 81.2054 36.987 80.8148 36.7479C80.4266 36.5088 80.1271 36.1785 79.9164 35.7571C79.708 35.3333 79.6039 34.8456 79.6039 34.294C79.6039 33.7401 79.7104 33.2512 79.9235 32.8274C80.1365 32.4013 80.4372 32.0698 80.8255 31.8331C81.2161 31.594 81.6777 31.4744 82.2104 31.4744C82.6531 31.4744 83.0449 31.5561 83.3858 31.7195C83.7291 31.8804 84.0025 32.1089 84.2061 32.4048C84.4097 32.6984 84.5257 33.0417 84.5542 33.4347H83.3255C83.2757 33.1719 83.1574 32.9529 82.9703 32.7777C82.7857 32.6001 82.5383 32.5114 82.2282 32.5114C81.9654 32.5114 81.7346 32.5824 81.5357 32.7244C81.3368 32.8641 81.1818 33.0653 81.0705 33.3281C80.9616 33.5909 80.9071 33.9058 80.9071 34.2727C80.9071 34.6444 80.9616 34.964 81.0705 35.2315C81.1794 35.4967 81.3321 35.7015 81.5286 35.8459C81.7275 35.9879 81.9606 36.0589 82.2282 36.0589C82.4176 36.0589 82.5868 36.0234 82.736 35.9524C82.8875 35.879 83.0141 35.7737 83.1159 35.6364C83.2177 35.4991 83.2876 35.3321 83.3255 35.1357H84.5542C84.5234 35.5215 84.4097 35.8636 84.2132 36.1619C84.0167 36.4579 83.7492 36.6899 83.4107 36.858C83.0721 37.0237 82.6744 37.1065 82.2175 37.1065Z" fill="#25449B"/>
</svg>
